<?xml version="1.0" standalone="no"?>
<!DOCTYPE svg PUBLIC "-//W3C//DTD SVG 1.1//EN" "http://www.w3.org/Graphics/SVG/1.1/DTD/svg11.dtd">
<svg xmlns="http://www.w3.org/2000/svg">
<defs >
<font id="WixMadeforDisplay" horiz-adv-x="592" ><font-face
    font-family="Wix Madefor Display Medium"
    units-per-em="1000"
    panose-1="2 11 5 3 2 2 3 2 2 3"
    ascent="1008"
    descent="-252"
    alphabetic="0" />
<glyph unicode=" " horiz-adv-x="195" />
<glyph unicode="!" horiz-adv-x="235" d="M182 54Q182 28 163 9T117 -10Q91 -10 72 9T53 54Q53 81 72 99T117 118Q144 118 163 100T182 54ZM143 210H91Q90 228 88 267T82 357T75 461T69 562T65 641T63 678Q63 701 78 716T117 731Q140 731 156 716T172 678Q172
673 170 642T166 563T160 462T153 357T148 267T143 210Z" />
<glyph unicode="&quot;" horiz-adv-x="377" d="M137 499H98Q90 538 83 576T72 644T68 687Q68 710 82 725T118 740Q138 740 152 725T167 687Q167 674 163 645T152 577T137 499ZM279 499H240Q232 538 225 576T214 644T210 687Q210 710 224 725T260 740Q280 740 294
725T309 687Q309 674 305 645T294 577T279 499Z" />
<glyph unicode="#" horiz-adv-x="674" d="M431 0H349L501 715H583L431 0ZM563 190H40L55 261H578L563 190ZM243 715H325L173 0H91L243 715ZM111 525H634L619 454H96L111 525Z" />
<glyph unicode="$" horiz-adv-x="660" d="M57 122L120 182Q159 130 213 101T336 71Q388 71 429 87T495 133T519 202Q519 238 500 262T440 302T331 329Q200 349 141 395T82 522Q82 580 115 625T205 695T333 721Q408 721 473 687T586 593L523 533Q488 586 440 615T334
644Q260 644 215 611T170 525Q170 492 187 470T240 433T336 408Q481 387 543 339T606 204Q606 142 570 95T473 21T337 -6Q248 -6 178 28T57 122ZM372 375H306V831H372V375ZM371 -116H305V365H371V-116Z" />
<glyph unicode="%" horiz-adv-x="771" d="M194 0H95L577 715H676L194 0ZM582 -8Q537 -8 501 13T444 70T423 152Q423 197 444 233T501 291T582 312Q628 312 664 291T721 234T742 152Q742 107 721 71T664 13T582 -8ZM582 65Q618 65 641 89T664 152Q664 190 641 214T582
239Q547 239 524 215T501 152Q501 114 524 90T582 65ZM188 403Q143 403 107 424T50 481T29 563Q29 608 50 644T107 702T188 723Q234 723 270 702T327 645T348 563Q348 518 327 482T270 424T188 403ZM188 476Q224 476 247 500T270 563Q270 601 247 625T188 650Q153
650 130 626T107 563Q107 525 130 501T188 476Z" />
<glyph unicode="&amp;" horiz-adv-x="687" d="M658 300L536 133Q472 51 411 18T275 -16Q204 -16 152 10T71 82T42 184Q42 264 97 321T264 414L287 353Q211 325 176 285T140 192Q140 137 178 100T280 62Q313 62 343 73T405 111T471 186L590 349L658 300ZM679 53L619
-9L246 344L231 357Q185 401 159 434T122 497T111 560Q111 606 136 645T205 707T304 731Q358 731 402 708T471 646T496 559Q496 510 470 471T399 403T299 355L271 415Q333 436 370 469T407 553Q407 597 378 626T304 655Q262 655 232 626T202 554Q202 530 212 506T246
456T307 398L325 383L679 53Z" />
<glyph unicode="&apos;" horiz-adv-x="235" d="M137 499H98Q90 538 83 576T72 644T68 687Q68 710 82 725T118 740Q138 740 152 725T167 687Q167 674 163 645T152 577T137 499Z" />
<glyph unicode="(" horiz-adv-x="325" d="M57 301Q57 421 94 530T200 731H289Q218 627 183 521T147 301Q147 79 289 -129H200Q131 -37 94 72T57 301Z" />
<glyph unicode=")" horiz-adv-x="325" d="M268 301Q268 181 232 72T125 -129H35Q178 79 178 301Q178 414 143 520T35 731H125Q195 639 231 530T268 301Z" />
<glyph unicode="*" horiz-adv-x="421" d="M211 496Q193 452 178 423T155 382Q140 360 118 360Q101 360 88 372T75 401Q75 416 87 432Q96 444 117 466T176 519Q128 523 100 528T58 538Q25 548 25 578Q25 597 36 609T65 621Q78 621 90 616Q104 611 127 599T189 560Q178
607 173 638T168 685Q168 706 179 718T211 731Q230 731 241 719T253 685Q253 670 249 639T232 560Q271 586 294 598T332 616Q345 621 357 621Q375 621 386 609T397 578Q397 548 364 538Q350 534 322 529T245 519Q282 489 304 467T334 432Q346 416 346 401Q346 385
333 373T303 360Q281 360 267 382Q258 393 244 422T211 496Z" />
<glyph unicode="+" horiz-adv-x="660" d="M541 319H119V395H541V319ZM368 146H292V568H368V146Z" />
<glyph unicode="," horiz-adv-x="235" d="M112 -124H52Q77 -91 92 -53T105 12L117 -7Q90 -7 72 10T53 55Q53 81 71 99T115 118Q145 118 163 98T182 43Q182 18 173 -12T147 -72T112 -124Z" />
<glyph unicode="-" horiz-adv-x="335" d="M303 244H31V325H303V244Z" />
<glyph unicode="." horiz-adv-x="235" d="M182 54Q182 28 163 9T118 -10Q91 -10 72 9T53 54Q53 81 72 99T118 118Q144 118 163 100T182 54Z" />
<glyph unicode="/" horiz-adv-x="491" d="M144 0H56L347 731H435L144 0Z" />
<glyph unicode="0" horiz-adv-x="649" d="M324 -16Q241 -16 181 28T88 156T56 357Q56 534 127 632T324 731Q450 731 521 633T593 357Q593 240 561 157T469 29T324 -16ZM324 64Q406 64 450 139T495 357Q495 500 451 575T324 651Q243 651 198 576T153 357Q153 215
198 140T324 64Z" />
<glyph unicode="1" horiz-adv-x="466" d="M267 715H354V0H260V614L78 476V575L267 715Z" />
<glyph unicode="2" horiz-adv-x="598" d="M529 0H50V78L305 316Q366 374 398 421T431 518Q431 555 414 585T365 633T293 651Q236 651 189 620T107 531L42 592Q93 661 156 696T297 731Q366 731 417 703T496 626T525 517Q525 471 506 429T448 343T351 246Q321 218
290 190T229 133T168 78H529V0Z" />
<glyph unicode="3" horiz-adv-x="607" d="M35 111L100 172Q136 122 186 93T299 64Q372 64 416 102T461 201Q461 242 439 271T379 316T293 332H224V412H293Q335 412 368 427T421 468T441 530Q441 584 403 617T302 651Q244 651 199 623T120 543L55 604Q103 664 165
697T303 731Q373 731 425 705T508 635T538 534Q538 484 508 444T423 382T297 359L311 396Q384 396 440 371T527 301T558 199Q558 138 526 90T435 13T301 -16Q220 -16 153 17T35 111Z" />
<glyph unicode="4" horiz-adv-x="653" d="M507 0H414V171H41V247L414 715H507V247H614V171H507V0ZM414 595L136 247H414V595Z" />
<glyph unicode="5" horiz-adv-x="599" d="M103 182Q137 129 184 97T295 64Q344 64 380 87T438 149T460 237Q460 284 440 320T383 376T300 397Q250 397 211 374T143 309L108 312Q120 362 148 398T220 455T317 476Q386 476 440 445T525 360T556 237Q556 164 522
107T430 17T297 -16Q215 -16 150 19T38 122L103 182ZM510 637H148L185 670L143 309H59L106 715H510V637Z" />
<glyph unicode="6" horiz-adv-x="627" d="M314 -16Q235 -16 176 18T83 113T50 252Q50 329 83 406T182 561T346 715H476Q378 640 314 578T213 461T159 351L141 360Q169 411 219 442T334 473Q401 473 457 443T546 358T580 234Q580 163 546 107T451 17T314 -16ZM314
64Q364 64 402 86T462 146T485 232Q485 279 463 316T402 374T314 396Q266 396 228 375T167 316T145 232Q145 184 167 147T227 87T314 64Z" />
<glyph unicode="7" horiz-adv-x="597" d="M545 715V635L193 0H88L444 635H52V715H545Z" />
<glyph unicode="8" horiz-adv-x="630" d="M315 -16Q238 -16 178 11T83 86T48 196Q48 255 83 301T178 374T315 400Q393 400 453 374T547 302T582 196Q582 134 548 87T454 12T315 -16ZM315 355Q246 355 192 378T106 442T75 534Q75 591 106 635T191 705T315 731Q385
731 439 706T524 636T555 534Q555 483 524 442T439 378T315 355ZM315 64Q363 64 401 81T462 128T485 198Q485 237 463 267T402 314T315 332Q268 332 230 315T168 267T145 198Q145 159 168 129T229 81T315 64ZM315 411Q356 411 388 426T440 469T460 530Q460 565
441 592T389 636T315 652Q275 652 242 636T190 593T171 530Q171 496 190 469T242 427T315 411Z" />
<glyph unicode="9" horiz-adv-x="627" d="M312 731Q392 731 451 697T543 602T577 463Q577 386 544 309T445 155T281 0H151Q250 75 314 137T414 254T467 364L485 355Q458 304 408 273T293 242Q226 242 170 272T81 357T47 481Q47 552 81 608T176 698T312 731ZM312
651Q263 651 225 629T164 569T141 483Q141 437 163 400T224 341T312 319Q362 319 400 340T460 399T482 483Q482 531 460 569T400 629T312 651Z" />
<glyph unicode=":" horiz-adv-x="235" d="M182 54Q182 28 163 9T118 -10Q91 -10 72 9T53 54Q53 81 72 99T118 118Q144 118 163 100T182 54ZM182 431Q182 405 163 386T118 367Q91 367 72 386T53 431Q53 458 72 476T118 495Q144 495 163 477T182 431Z" />
<glyph unicode=";" horiz-adv-x="235" d="M112 -124H52Q77 -91 92 -53T105 12L117 -7Q90 -7 72 10T53 55Q53 81 71 99T115 118Q145 118 163 98T182 43Q182 18 173 -12T147 -72T112 -124ZM182 431Q182 405 163 386T118 367Q91 367 72 386T53 431Q53 458 72 476T118
495Q144 495 163 477T182 431Z" />
<glyph unicode="&lt;" horiz-adv-x="660" d="M121 389L539 218V130L121 308V389ZM121 412L539 588V503L121 333V412Z" />
<glyph unicode="=" horiz-adv-x="660" d="M533 214H127V291H533V214ZM533 423H127V500H533V423Z" />
<glyph unicode="&gt;" horiz-adv-x="660" d="M121 500V588L539 411V330L121 500ZM121 130V215L539 385V307L121 130Z" />
<glyph unicode="?" horiz-adv-x="566" d="M296 210H221Q217 255 228 290T267 357T341 418Q377 443 394 470T411 531Q411 585 374 618T278 651Q226 651 181 623T99 539L34 600Q83 664 145 697T280 731Q346 731 396 705T477 635T507 533Q507 478 476 435T381 351Q334
321 315 290T296 210ZM323 54Q323 28 304 9T258 -10Q231 -10 212 9T193 54Q193 81 212 99T258 118Q285 118 304 100T323 54Z" />
<glyph unicode="@" horiz-adv-x="1046" d="M497 43Q439 43 391 71T315 149T287 260Q287 324 315 373T391 450T498 478Q551 478 590 455T652 391T675 299Q675 288 674 276T668 248L648 265Q648 306 631 338T582 389T509 409Q470 409 439 390T389 337T371 260Q371
218 388 185T437 133T510 113Q552 113 587 132T643 184T665 259L684 236Q694 183 671 139T601 69T497 43ZM768 -25L827 -86Q800 -116 756 -140T655 -179T530 -194Q431 -194 346 -160T198 -63T100 82T64 262Q64 362 99 447T199 596T350 695T537 731Q633 731 715
698T857 604T951 462T984 287Q984 174 935 109T797 43Q732 43 690 84T648 193V338L649 345V464H729V210Q729 162 749 141T803 119Q849 119 874 161T900 282Q900 391 854 475T727 607T538 655Q454 655 383 626T259 543T177 418T148 262Q148 182 177 113T259 -8T380
-89T531 -118Q611 -118 675 -92T768 -25Z" />
<glyph unicode="A" horiz-adv-x="741" d="M568 186H168V269H568V186ZM708 0H606L351 653H387L132 0H34L318 715H423L708 0Z" />
<glyph unicode="B" horiz-adv-x="669" d="M80 0V715H358Q428 715 479 692T559 626T588 527Q588 475 560 435T480 372T358 349H186V398H376Q449 398 503 374T588 307T619 203Q619 142 589 96T504 25T376 0H80ZM176 83H377Q444 83 482 115T521 205Q521 263 483 295T377
327H166V408H356Q418 408 454 438T490 522Q490 573 454 602T356 632H176V83Z" />
<glyph unicode="C" horiz-adv-x="743" d="M638 184L705 119Q658 57 583 21T418 -16Q339 -16 273 12T157 90T81 209T53 357Q53 437 81 505T158 624T275 703T421 731Q510 731 584 695T705 596L638 531Q602 583 547 614T421 645Q345 645 285 608T189 506T154 357Q154
275 189 210T284 108T421 70Q492 70 547 101T638 184Z" />
<glyph unicode="D" horiz-adv-x="746" d="M80 0V715H318Q429 715 513 669T645 543T693 358Q693 254 646 173T514 46T318 0H80ZM176 85H318Q402 85 464 119T559 214T593 358Q593 440 560 501T464 596T318 630H176V85Z" />
<glyph unicode="E" horiz-adv-x="608" d="M563 0H80V715H563V632H176V83H563V0ZM544 323H166V406H544V323Z" />
<glyph unicode="F" horiz-adv-x="583" d="M176 0H80V715H543V632H176V0ZM524 323H166V406H524V323Z" />
<glyph unicode="G" horiz-adv-x="801" d="M743 0H652V103L664 99Q628 45 565 15T423 -16Q344 -16 277 11T159 89T81 208T53 358Q53 438 81 506T159 624T278 703T426 731Q519 731 594 695T718 596L651 531Q614 583 558 614T426 645Q348 645 286 608T189 506T154
358Q154 275 189 210T286 107T430 69Q510 69 571 104T660 199L651 161V297H421V378H743V0Z" />
<glyph unicode="H" horiz-adv-x="746" d="M569 0V715H665V0H569ZM176 0H80V715H176V0ZM166 328V412H579V328H166Z" />
<glyph unicode="I" horiz-adv-x="257" d="M176 0H80V715H176V0Z" />
<glyph unicode="J" horiz-adv-x="655" d="M583 715V274Q583 135 512 60T309 -16Q231 -16 173 13T81 96T39 228L134 239Q143 156 187 113T309 70Q396 70 441 122T487 274V715H583Z" />
<glyph unicode="K" horiz-adv-x="704" d="M176 0H80V715H176V0ZM687 0H548L152 371H167L521 715H645L269 358V384L687 0Z" />
<glyph unicode="L" horiz-adv-x="568" d="M533 0H80V715H176V85H533V0Z" />
<glyph unicode="M" horiz-adv-x="906" d="M488 66H416L131 661L172 662V0H79V715H198L478 127H428L709 715H825V0H732V662L773 661L488 66Z" />
<glyph unicode="N" horiz-adv-x="744" d="M172 0H79V715H182L600 99H573V715H666V0H563L144 616H172V0Z" />
<glyph unicode="O" horiz-adv-x="856" d="M428 -16Q347 -16 279 12T160 90T81 209T53 358Q53 438 81 506T160 624T279 703T428 731Q509 731 577 703T696 625T775 506T803 358Q803 278 775 210T696 91T577 12T428 -16ZM428 70Q509 70 571 107T667 209T702 358Q702
441 668 506T571 608T428 645Q348 645 286 608T189 506T154 358Q154 275 188 210T285 107T428 70Z" />
<glyph unicode="P" horiz-adv-x="648" d="M176 0H80V715H362Q435 715 489 689T573 617T604 509Q604 447 574 401T489 329T362 303H166V386H362Q429 386 467 418T506 509Q506 567 468 599T362 632H176V0Z" />
<glyph unicode="Q" horiz-adv-x="856" d="M723 -39L466 226L524 282L780 17L723 -39ZM428 -16Q347 -16 279 12T160 90T81 209T53 358Q53 438 81 506T160 624T279 703T428 731Q509 731 577 703T696 625T775 506T803 358Q803 278 775 210T696 91T577 12T428 -16ZM428
70Q510 70 572 106T668 208T702 358Q702 441 668 506T571 608T428 645Q348 645 286 608T189 506T154 358Q154 275 188 210T285 107T428 70Z" />
<glyph unicode="R" horiz-adv-x="694" d="M176 0H80V715H362Q435 715 489 689T573 617T604 509Q604 447 574 401T489 329T362 303H166V386H362Q429 386 467 418T506 509Q506 567 468 599T362 632H176V0ZM675 0H554L286 333H398L675 0Z" />
<glyph unicode="S" horiz-adv-x="685" d="M36 116L104 182Q133 147 171 122T253 83T346 69Q401 69 443 85T509 131T533 199Q533 250 489 279T336 325Q238 340 179 365T93 428T66 520Q66 582 101 630T197 704T338 731Q429 731 499 696T623 599L556 534Q515 585
463 615T338 646Q262 646 214 613T165 523Q165 494 183 474T242 439T352 414Q452 400 513 373T603 303T632 202Q632 137 596 88T495 12T346 -16Q247 -16 170 19T36 116Z" />
<glyph unicode="T" horiz-adv-x="632" d="M364 0H268V641H364V0ZM598 631H35V715H598V631Z" />
<glyph unicode="U" horiz-adv-x="728" d="M656 715V282Q656 141 579 63T364 -16Q228 -16 150 62T72 282V715H168V282Q168 180 219 125T364 70Q458 70 509 125T561 282V715H656Z" />
<glyph unicode="V" horiz-adv-x="727" d="M414 0H313L34 715H138L382 63H348L593 715H693L414 0Z" />
<glyph unicode="W" horiz-adv-x="1058" d="M806 0H695L524 600H535L363 0H253L38 715H141L326 65H294L480 715H579L766 65H736L921 715H1020L806 0Z" />
<glyph unicode="X" horiz-adv-x="686" d="M131 0H18L293 392V350L42 715H155L357 411H330L532 715H643L393 350L394 392L668 0H554L329 330H357L131 0Z" />
<glyph unicode="Y" horiz-adv-x="668" d="M382 0H286V307L18 715H130L348 369H322L541 715H650L382 305V0Z" />
<glyph unicode="Z" horiz-adv-x="620" d="M578 0H44V84L450 631H57V715H565V631L159 84H578V0Z" />
<glyph unicode="[" horiz-adv-x="318" d="M276 -129H65V731H276V656H157V-54H276V-129Z" />
<glyph unicode="\" horiz-adv-x="491" d="M435 0H347L56 731H144L435 0Z" />
<glyph unicode="]" horiz-adv-x="318" d="M253 -129H42V-54H161V656H42V731H253V-129Z" />
<glyph unicode="^" horiz-adv-x="660" d="M300 715H383L565 354H474L300 715ZM277 715H357L181 354H95L277 715Z" />
<glyph unicode="_" horiz-adv-x="500" d="M500 -135H0V-59H500V-135Z" />
<glyph unicode="`" horiz-adv-x="589" d="M319 587L180 761H286L400 587H319Z" />
<glyph unicode="a" horiz-adv-x="558" d="M499 0H412V98L409 122V307Q409 366 371 400T268 435Q221 435 182 416T114 362L56 422Q97 465 150 488T270 512Q338 512 389 487T470 418T499 310V0ZM229 -16Q173 -16 130 4T63 61T39 143Q39 195 68 231T150 287T269 307H420V238H279Q216
238 176 216T135 146Q135 106 165 82T245 58Q293 58 332 77T394 130T421 210L454 192Q454 132 425 85T346 11T229 -16Z" />
<glyph unicode="b" horiz-adv-x="639" d="M158 0H66V720H159V344H136Q144 393 173 431T247 490T346 512Q418 512 474 478T562 384T594 248Q594 171 562 112T472 18T341 -16Q274 -16 225 11T151 86T131 193L150 212Q154 169 178 135T241 83T325 64Q377 64 415 87T475
153T497 248Q497 301 477 342T419 408T331 432Q281 432 243 408T182 339T159 237V132L158 129V0Z" />
<glyph unicode="c" horiz-adv-x="552" d="M454 141L517 81Q481 36 428 10T308 -16Q232 -16 173 18T79 111T45 248Q45 324 79 383T173 477T310 512Q376 512 428 486T517 415L454 355Q431 390 396 411T312 432Q262 432 224 409T164 344T142 248Q142 194 163 153T223
88T312 64Q362 64 396 85T454 141Z" />
<glyph unicode="d" horiz-adv-x="639" d="M573 0H481V129L480 132V237Q480 295 459 339T399 407T310 432Q260 432 222 408T163 343T142 248Q142 195 164 153T224 88T314 64Q360 64 398 82T460 135T489 212L508 193Q514 134 489 87T414 12T298 -16Q225 -16 168
18T78 111T45 248Q45 324 77 383T167 477T295 512Q350 512 394 491T467 432T503 344H480V720H573V0Z" />
<glyph unicode="e" horiz-adv-x="604" d="M488 146L546 86Q507 38 451 11T323 -16Q242 -16 179 18T81 111T45 248Q45 325 79 384T173 478T308 512Q381 512 437 479T526 387T559 251V245H465V254Q465 308 445 348T390 411T308 434Q259 434 221 411T162 347T141
249Q141 193 164 151T230 85T326 62Q425 62 488 146ZM559 217H114V286H543L559 251V217Z" />
<glyph unicode="f" horiz-adv-x="390" d="M222 0H129V594Q129 720 255 720H360V645H281Q249 645 236 631T222 585V0ZM360 418H31V496H360V418Z" />
<glyph unicode="g" horiz-adv-x="639" d="M573 48Q573 -28 539 -86T444 -177T306 -210Q235 -210 177 -186T81 -118L139 -56Q167 -91 207 -111T304 -131Q357 -131 396 -109T458 -47T480 46V237Q480 301 456 344T394 409T310 432Q261 432 223 408T163 344T142 252Q142
200 163 160T223 98T314 75Q360 75 398 94T460 146T489 223L508 204Q515 144 489 97T413 23T298 -5Q226 -5 169 27T78 118T45 252Q45 328 78 386T168 478T295 512Q346 512 389 493T463 437T502 344H481V496H573V48Z" />
<glyph unicode="h" horiz-adv-x="589" d="M530 0H437V286Q437 359 404 395T315 432Q275 432 239 411T181 345T159 229V0H66V720H159V344H145Q156 407 184 443T253 496T336 512Q426 512 478 457T530 296V0Z" />
<glyph unicode="i" horiz-adv-x="225" d="M159 0H66V496H159V0ZM113 613Q87 613 69 630T50 674Q50 700 68 718T113 736Q139 736 157 718T175 674Q175 648 157 631T113 613Z" />
<glyph unicode="j" horiz-adv-x="225" d="M-27 -194V-116H7Q39 -116 52 -102T66 -56V496H159V-68Q159 -194 33 -194H-27ZM113 613Q87 613 69 630T50 674Q50 700 68 718T113 736Q139 736 157 718T175 674Q175 648 157 631T113 613Z" />
<glyph unicode="k" horiz-adv-x="566" d="M159 0H66V720H159V0ZM553 0H424L132 257H142L404 496H524L246 248V266L553 0Z" />
<glyph unicode="l" horiz-adv-x="225" d="M159 0H66V720H159V0Z" />
<glyph unicode="m" horiz-adv-x="920" d="M860 0H767V287Q767 359 737 395T655 432Q618 432 585 411T531 346T510 230V0H417V287Q417 359 387 395T305 432Q267 432 234 411T180 346T159 230V0H66V496H158V375L150 376Q164 427 191 456T254 498T327 512Q394 512
437 475T494 366H482Q496 419 525 451T593 497T672 512Q761 512 810 457T860 296V0Z" />
<glyph unicode="n" horiz-adv-x="589" d="M530 0H437V286Q437 359 404 395T315 432Q275 432 239 411T181 345T159 229V0H66V496H158V344H144Q155 407 184 443T253 496T336 512Q426 512 478 457T530 296V0Z" />
<glyph unicode="o" horiz-adv-x="621" d="M311 -16Q233 -16 173 18T79 111T45 248Q45 325 79 384T173 477T311 512Q389 512 448 478T542 384T577 248Q577 171 543 112T449 18T311 -16ZM311 64Q361 64 399 87T458 152T479 248Q479 302 458 343T399 408T311 432Q261
432 223 409T163 344T142 248Q142 194 163 152T222 87T311 64Z" />
<glyph unicode="p" horiz-adv-x="639" d="M159 -194H66V496H158V344H137Q145 393 174 431T248 490T346 512Q418 512 474 478T562 384T594 248Q594 171 562 112T472 18T341 -16Q274 -16 225 11T151 86T131 193L150 212Q154 169 178 135T241 83T325 64Q377 64 415
87T475 153T497 248Q497 301 476 342T418 408T331 432Q281 432 243 408T182 339T159 237V-194Z" />
<glyph unicode="q" horiz-adv-x="639" d="M573 -194H480V237Q480 295 459 339T399 407T310 432Q261 432 223 408T163 343T142 248Q142 195 164 153T224 88T314 64Q360 64 398 82T460 135T489 212L508 193Q514 134 489 87T414 12T298 -16Q225 -16 168 18T78 111T45
248Q45 324 77 383T167 477T295 512Q350 512 393 491T466 432T502 344H481V496H573V-194Z" />
<glyph unicode="r" horiz-adv-x="375" d="M346 504V416H324Q279 416 242 395T182 328T159 209V0H66V496H158V337H144Q155 400 184 436T253 488T333 504H346Z" />
<glyph unicode="s" horiz-adv-x="523" d="M26 76L85 136Q120 100 165 80T263 59Q319 59 354 81T389 139Q389 171 359 188T255 216Q144 232 97 265T49 357Q49 403 76 438T150 492T258 512Q326 512 380 488T474 421L416 361Q386 396 347 416T258 437Q207 437 175
416T142 362Q142 336 170 322T269 297Q382 281 431 245T481 144Q481 97 453 61T376 4T261 -16Q188 -16 130 8T26 76Z" />
<glyph unicode="t" horiz-adv-x="401" d="M366 0H247Q189 0 159 30T128 118V636H221V130Q221 105 234 92T272 78H366V0ZM359 418H31V496H359V418Z" />
<glyph unicode="u" horiz-adv-x="587" d="M521 0H429V96L428 124V496H521V0ZM437 212L456 192Q460 131 435 85T363 11T255 -16Q166 -16 113 37T60 190V496H153V200Q153 133 185 99T276 64Q317 64 352 82T410 134T437 212Z" />
<glyph unicode="v" horiz-adv-x="555" d="M323 0H232L19 496H118L295 56H263L441 496H536L323 0Z" />
<glyph unicode="w" horiz-adv-x="790" d="M613 0H512L383 415H406L277 0H177L19 496H113L245 46H214L353 496H441L578 46H548L679 496H771L613 0Z" />
<glyph unicode="x" horiz-adv-x="529" d="M119 0H12L205 257L29 496H135L265 311L394 496H500L324 257L518 0H409L265 200L119 0Z" />
<glyph unicode="y" horiz-adv-x="555" d="M441 496H536L289 -79Q266 -134 231 -164T129 -194H75V-116H127Q158 -116 178 -101T212 -55L233 -2L19 496H118L297 51H261L441 496Z" />
<glyph unicode="z" horiz-adv-x="498" d="M460 0H39V76L337 419H49V496H450V419L153 76H460V0Z" />
<glyph unicode="{" horiz-adv-x="390" d="M348 -54V-129H264Q138 -129 138 -3V205Q138 236 124 250T79 264H42V340H79Q110 340 124 354T138 399V605Q138 731 264 731H348V656H288Q257 656 244 642T230 596V416Q230 290 103 290V314Q230 314 230 187V6Q230 -25
243 -39T288 -54H348Z" />
<glyph unicode="|" horiz-adv-x="222" d="M157 -129H65V736H157V-129Z" />
<glyph unicode="}" horiz-adv-x="390" d="M42 -129V-54H102Q133 -54 147 -40T161 6V187Q161 314 287 314V290Q161 290 161 416V596Q161 628 147 642T102 656H42V731H127Q253 731 253 605V399Q253 368 266 354T312 340H348V264H312Q280 264 267 250T253 205V-3Q253
-129 127 -129H42Z" />
<glyph unicode="~" horiz-adv-x="660" d="M498 445L570 413Q552 335 519 300T431 264Q411 264 383 276T316 319Q288 340 273 351T248 365T230 369Q203 369 187 343T161 269L89 301Q107 379 140 414T228 450Q248 450 276 438T344 395Q371 374 386 363T411 349T429
345Q457 345 473 371T498 445Z" />
<glyph unicode="&#xa0;" horiz-adv-x="195" />
<glyph unicode="&#xa1;" horiz-adv-x="235" d="M53 432Q53 458 72 477T117 496Q144 496 163 477T182 432Q182 405 163 386T117 367Q91 367 72 386T53 432ZM91 275H143Q145 259 147 220T153 129T159 25T165 -76T170 -155T172 -193Q172 -215 156 -230T117 -245Q94
-245 79 -230T63 -193Q63 -187 64 -156T69 -77T75 24T81 129T87 219T91 275Z" />
<glyph unicode="&#xa2;" horiz-adv-x="660" d="M506 139L566 81Q530 36 478 10T358 -16Q282 -16 223 18T129 111T94 248Q94 324 128 383T223 477T359 512Q426 512 478 486T566 415L506 357Q483 391 448 412T362 434Q311 434 272 411T211 345T188 248Q188 193 210
151T272 85T362 61Q412 61 447 83T506 139ZM390 -116H324V612H390V-116Z" />
<glyph unicode="&#xa3;" horiz-adv-x="660" d="M612 0H63V78H612V0ZM500 314H73V390H500V314ZM613 611L548 552Q516 603 481 627T400 651Q336 651 301 608T266 491V40H174V489Q174 561 201 615T279 700T400 731Q468 731 521 700T613 611Z" />
<glyph unicode="&#xa4;" horiz-adv-x="617" d="M309 231Q348 231 379 250T428 301T446 376Q446 417 428 450T379 501T309 520Q270 520 239 502T189 450T171 376Q171 334 189 302T238 250T309 231ZM309 161Q273 161 241 171T183 200L109 126L61 174L135 247Q116
274 105 306T93 376Q93 412 104 445T135 504L61 578L109 626L183 551Q209 570 241 580T309 591Q344 591 376 581T434 551L509 626L556 578L483 504Q502 478 513 445T524 376Q524 339 513 307T483 247L556 174L509 126L434 200Q408 182 376 172T309 161Z" />
<glyph unicode="&#xa5;" horiz-adv-x="660" d="M376 0H284V316L26 715H132L344 373H318L531 715H634L376 314V0ZM548 119H113V191H548V119ZM548 277H113V350H548V277Z" />
<glyph unicode="&#xa6;" horiz-adv-x="222" d="M157 -129H65V217H157V-129ZM157 390H65V736H157V390Z" />
<glyph unicode="&#xa7;" horiz-adv-x="590" d="M523 306Q523 260 497 224T425 166Q461 144 480 113T499 36Q499 -10 473 -47T402 -106T299 -128Q234 -128 176 -103T79 -36L127 20Q157 -13 202 -34T299 -55Q350 -55 383 -30T416 32Q416 75 387 99T295 138Q194 162
142 199T89 303Q89 349 116 385T188 443Q114 488 114 565Q114 613 139 650T208 709T305 731Q365 731 419 706T509 640L459 584Q432 616 393 637T306 659Q259 659 229 635T198 569Q198 533 227 510T318 471Q420 447 471 410T523 306ZM440 298Q439 335 406 356T307
395L258 408Q224 396 199 372T173 313Q173 275 206 253T306 214L354 201Q389 213 414 237T440 298Z" />
<glyph unicode="&#xa8;" horiz-adv-x="589" d="M395 614Q369 614 351 631T333 674Q333 700 351 717T395 735Q421 735 438 718T456 674Q456 649 439 632T395 614ZM185 614Q160 614 142 631T124 674Q124 700 142 717T185 735Q212 735 229 718T247 674Q247 649 230
632T185 614Z" />
<glyph unicode="&#xa9;" horiz-adv-x="852" d="M547 272L597 222Q570 187 527 166T428 145Q367 145 319 173T243 249T216 358Q216 420 243 468T320 544T430 572Q485 572 527 551T597 495L547 446Q528 474 499 490T432 506Q393 506 362 487T312 435T294 358Q294
316 312 283T361 230T432 211Q469 211 498 227T547 272ZM426 -26Q347 -26 278 3T156 86T75 208T45 358Q45 438 74 507T156 630T277 712T426 742Q506 742 575 713T696 630T777 508T807 358Q807 278 778 209T696 86T575 4T426 -26ZM426 43Q491 43 547 67T646 134T713
234T737 358Q737 424 713 481T647 582T548 649T426 673Q361 673 305 649T206 582T139 482T115 358Q115 292 139 235T205 134T304 67T426 43Z" />
<glyph unicode="&#xaa;" horiz-adv-x="464" d="M404 313H329V391L326 407V553Q326 598 297 623T219 649Q183 649 153 635T101 594L53 646Q84 678 127 696T221 715Q303 715 353 672T404 555V313ZM189 301Q122 301 81 336T39 426Q39 487 89 521T222 555H334V497H230Q183
497 153 480T123 429Q123 399 146 382T206 364Q259 364 295 395T335 477L361 463Q361 415 339 379T278 322T189 301Z" />
<glyph unicode="&#xab;" horiz-adv-x="531" d="M182 34L38 248L182 462H286L140 248L286 34H182ZM380 34L236 248L380 462H484L338 248L484 34H380Z" />
<glyph unicode="&#xac;" horiz-adv-x="660" d="M543 168H467V319H117V395H543V168Z" />
<glyph unicode="&#xad;" horiz-adv-x="335" d="M303 244H31V325H303V244Z" />
<glyph unicode="&#xae;" horiz-adv-x="527" d="M219 383H176V603H274Q312 603 336 584T360 534Q360 504 336 485T274 465H216V502H274Q293 502 304 511T316 534Q316 548 305 557T274 567H219V383ZM380 383H327L244 474H295L380 383ZM263 261Q202 261 152 291T71
373T41 488Q41 551 71 602T151 684T263 715Q325 715 375 685T456 603T486 488Q486 425 456 374T376 292T263 261ZM263 317Q310 317 347 338T406 399T428 488Q428 539 407 577T348 637T263 659Q216 659 179 638T121 578T99 488Q99 438 120 399T179 339T263 317Z"
/>
<glyph unicode="&#xaf;" horiz-adv-x="589" d="M433 616H147V687H433V616Z" />
<glyph unicode="&#xb0;" horiz-adv-x="457" d="M229 384Q181 384 142 407T79 471T55 558Q55 606 78 645T141 707T229 731Q277 731 316 708T379 645T403 558Q403 511 379 471T316 408T229 384ZM229 455Q270 455 298 484T326 558Q326 601 298 630T229 660Q188 660
160 631T131 558Q131 514 159 485T229 455Z" />
<glyph unicode="&#xb1;" horiz-adv-x="660" d="M541 327H119V403H541V327ZM368 154H292V576H368V154ZM543 0H117V76H543V0Z" />
<glyph unicode="&#xb2;" horiz-adv-x="418" d="M350 404H47V461L196 593Q230 623 247 646T265 696Q265 721 247 738T197 756Q169 756 142 738T94 686L40 736Q72 778 112 799T201 821Q243 821 275 805T325 760T343 697Q343 656 317 620T239 538Q209 511 187 492T142
455L137 468H350V404Z" />
<glyph unicode="&#xb3;" horiz-adv-x="403" d="M33 473L83 522Q106 491 134 475T196 459Q234 459 256 477T279 523Q279 550 256 567T190 585H157V648H190Q224 648 246 663T268 703Q268 726 249 741T198 757Q168 757 142 741T94 695L45 742Q72 779 114 800T204
821Q246 821 277 806T327 765T346 709Q346 663 305 635T192 606L194 632Q270 632 313 601T357 518Q357 485 338 457T283 412T200 395Q149 395 105 416T33 473Z" />
<glyph unicode="&#xb4;" horiz-adv-x="589" d="M400 761L261 587H180L294 761H400Z" />
<glyph unicode="&#xb5;" horiz-adv-x="660" d="M561 0H469V96L468 124V496H561V0ZM149 64L193 90V-194H100V496H193V200Q193 133 225 99T316 64Q357 64 392 82T450 134T477 212L496 192Q500 131 475 85T405 11T301 -16Q248 -16 209 4T149 64Z" />
<glyph unicode="&#xb6;" horiz-adv-x="633" d="M345 -130H259V289Q196 294 148 322T73 396T46 501Q46 565 77 613T166 688T298 715H544V-130H458V636H345V-130Z" />
<glyph unicode="&#xb7;" horiz-adv-x="235" d="M182 285Q182 259 163 240T118 221Q91 221 72 240T53 285Q53 312 72 330T118 349Q144 349 163 331T182 285Z" />
<glyph unicode="&#xb8;" horiz-adv-x="589" d="M162 -220L196 -167Q207 -180 226 -188T265 -196Q289 -196 303 -185T318 -153Q318 -133 303 -121T258 -108Q249 -108 239 -109T219 -114L254 10H314L289 -78L259 -50Q296 -50 326 -62T373 -98T391 -151Q391 -196
358 -226T262 -257Q232 -257 206 -247T162 -220Z" />
<glyph unicode="&#xb9;" horiz-adv-x="366" d="M190 815H256V404H177V728L76 655V734L190 815Z" />
<glyph unicode="&#xba;" horiz-adv-x="512" d="M256 302Q195 302 147 328T72 401T45 508Q45 569 72 615T147 688T256 715Q318 715 365 689T440 616T467 508Q467 448 440 401T366 328T256 302ZM256 371Q311 371 346 409T381 508Q381 569 346 607T256 646Q201 646
166 608T131 508Q131 448 166 410T256 371Z" />
<glyph unicode="&#xbb;" horiz-adv-x="531" d="M151 462L296 248L151 34H48L194 248L48 462H151ZM349 462L494 248L349 34H246L392 248L246 462H349Z" />
<glyph unicode="&#xbc;" horiz-adv-x="941" d="M272 0H173L655 715H754L272 0ZM843 0H766V91H544V154L766 408H843V154H904V91H843V0ZM766 318L624 154H766V318ZM190 715H256V304H177V628L76 555V634L190 715Z" />
<glyph unicode="&#xbd;" horiz-adv-x="979" d="M269 0H170L652 715H751L269 0ZM911 0H608V57L757 189Q791 219 808 242T826 292Q826 317 808 334T758 352Q730 352 703 334T655 282L601 332Q633 374 673 395T762 417Q804 417 836 401T886 356T904 293Q904 252 878
216T800 134Q770 107 748 88T703 51L698 64H911V0ZM190 715H256V304H177V628L76 555V634L190 715Z" />
<glyph unicode="&#xbe;" horiz-adv-x="978" d="M309 0H210L692 715H791L309 0ZM880 0H803V91H581V154L803 408H880V154H941V91H880V0ZM803 318L661 154H803V318ZM33 373L83 422Q106 391 134 375T196 359Q234 359 256 377T279 423Q279 450 256 467T190 485H157V548H190Q224
548 246 563T268 603Q268 626 249 641T198 657Q168 657 142 641T94 595L45 642Q72 679 114 700T204 721Q246 721 277 706T327 665T346 609Q346 563 305 535T192 506L194 532Q270 532 313 501T357 418Q357 385 338 357T283 312T200 295Q149 295 105 316T33 373Z"
/>
<glyph unicode="&#xbf;" horiz-adv-x="566" d="M270 275H345Q349 232 338 196T300 129T225 68Q189 42 172 15T155 -45Q155 -98 192 -131T288 -165Q340 -165 385 -137T467 -54L532 -115Q484 -179 422 -212T286 -245Q221 -245 170 -219T89 -148T59 -47Q59 8 90 51T185
135Q232 164 251 196T270 275ZM243 432Q243 458 262 477T308 496Q335 496 354 477T373 432Q373 405 354 386T308 367Q281 367 262 386T243 432Z" />
<glyph unicode="&#xc0;" horiz-adv-x="741" d="M568 186H168V269H568V186ZM708 0H606L351 653H387L132 0H34L318 715H423L708 0ZM339 797L180 941H298L432 797H339Z" />
<glyph unicode="&#xc1;" horiz-adv-x="741" d="M568 186H168V269H568V186ZM708 0H606L351 653H387L132 0H34L318 715H423L708 0ZM560 941L401 797H308L442 941H560Z" />
<glyph unicode="&#xc2;" horiz-adv-x="741" d="M568 186H168V269H568V186ZM708 0H606L351 653H387L132 0H34L318 715H423L708 0ZM548 799H456L324 927H414L283 799H192L325 943H415L548 799Z" />
<glyph unicode="&#xc3;" horiz-adv-x="741" d="M568 186H168V269H568V186ZM708 0H606L351 653H387L132 0H34L318 715H423L708 0ZM486 917L552 890Q542 838 509 814T440 790Q417 790 395 800T352 824Q332 837 321 843T298 850Q283 850 271 837T253 793L187 820Q197
872 230 896T299 920Q322 920 344 910T387 886Q407 873 418 867T441 860Q456 860 469 873T486 917Z" />
<glyph unicode="&#xc4;" horiz-adv-x="741" d="M568 186H168V269H568V186ZM708 0H606L351 653H387L132 0H34L318 715H423L708 0ZM479 804Q452 804 434 822T416 865Q416 891 434 909T479 927Q505 927 523 909T541 865Q541 840 523 822T479 804ZM261 804Q235 804
217 822T199 865Q199 891 217 909T261 927Q288 927 306 909T324 865Q324 840 306 822T261 804Z" />
<glyph unicode="&#xc5;" horiz-adv-x="741" d="M568 186H168V269H568V186ZM708 0H606L351 653H387L132 0H34L318 715H423L708 0ZM370 747Q338 747 312 762T270 803T254 860Q254 893 270 918T312 959T370 974Q402 974 428 959T470 919T486 860Q486 829 470 803T428
762T370 747ZM370 804Q393 804 408 820T424 860Q424 885 409 901T370 917Q347 917 332 901T316 860Q316 836 331 820T370 804Z" />
<glyph unicode="&#xc6;" horiz-adv-x="1055" d="M579 715L126 0H23L483 715H579ZM563 186H221V269H563V186ZM1010 0H527V715H1010V632H623V83H1010V0ZM991 323H613V406H991V323Z" />
<glyph unicode="&#xc7;" horiz-adv-x="743" d="M638 184L705 119Q658 57 583 21T418 -16Q339 -16 273 12T157 90T81 209T53 357Q53 437 81 505T158 624T275 703T421 731Q510 731 584 695T705 596L638 531Q602 583 547 614T421 645Q345 645 285 608T189 506T154
357Q154 275 189 210T284 108T421 70Q492 70 547 101T638 184ZM306 -220L341 -166Q353 -178 371 -186T411 -194Q434 -194 448 -183T462 -153Q462 -135 447 -123T402 -110Q393 -110 383 -111T362 -116L391 10H450L433 -79L404 -50Q441 -50 471 -62T519 -98T537 -151Q537
-196 504 -226T406 -257Q377 -257 351 -247T306 -220Z" />
<glyph unicode="&#xc8;" horiz-adv-x="608" d="M563 0H80V715H563V632H176V83H563V0ZM544 323H166V406H544V323ZM290 797L131 941H249L383 797H290Z" />
<glyph unicode="&#xc9;" horiz-adv-x="608" d="M563 0H80V715H563V632H176V83H563V0ZM544 323H166V406H544V323ZM511 941L352 797H259L393 941H511Z" />
<glyph unicode="&#xca;" horiz-adv-x="608" d="M563 0H80V715H563V632H176V83H563V0ZM544 323H166V406H544V323ZM499 799H407L275 927H365L234 799H143L276 943H366L499 799Z" />
<glyph unicode="&#xcb;" horiz-adv-x="608" d="M563 0H80V715H563V632H176V83H563V0ZM544 323H166V406H544V323ZM430 804Q403 804 385 822T367 865Q367 891 385 909T430 927Q456 927 474 909T492 865Q492 840 474 822T430 804ZM212 804Q186 804 168 822T150 865Q150
891 168 909T212 927Q239 927 257 909T275 865Q275 840 257 822T212 804Z" />
<glyph unicode="&#xcc;" horiz-adv-x="257" d="M176 0H80V715H176V0ZM97 797L-62 941H56L190 797H97Z" />
<glyph unicode="&#xcd;" horiz-adv-x="257" d="M176 0H80V715H176V0ZM318 941L159 797H66L200 941H318Z" />
<glyph unicode="&#xce;" horiz-adv-x="257" d="M176 0H80V715H176V0ZM306 799H214L82 927H172L41 799H-50L83 943H173L306 799Z" />
<glyph unicode="&#xcf;" horiz-adv-x="257" d="M176 0H80V715H176V0ZM237 804Q210 804 192 822T174 865Q174 891 192 909T237 927Q263 927 281 909T299 865Q299 840 281 822T237 804ZM19 804Q-7 804 -25 822T-43 865Q-43 891 -25 909T19 927Q46 927 64 909T82
865Q82 840 64 822T19 804Z" />
<glyph unicode="&#xd0;" horiz-adv-x="746" d="M80 0V715H318Q429 715 513 669T645 543T693 358Q693 254 646 173T514 46T318 0H80ZM176 85H318Q402 85 464 119T559 214T593 358Q593 440 560 501T464 596T318 630H176V85ZM367 323H9V406H367V323Z" />
<glyph unicode="&#xd1;" horiz-adv-x="744" d="M172 0H79V715H182L600 99H573V715H666V0H563L144 616H172V0ZM488 917L554 890Q544 838 511 814T442 790Q419 790 397 800T354 824Q334 837 323 843T300 850Q285 850 273 837T255 793L189 820Q199 872 232 896T301
920Q324 920 346 910T389 886Q409 873 420 867T443 860Q458 860 471 873T488 917Z" />
<glyph unicode="&#xd2;" horiz-adv-x="856" d="M428 -16Q347 -16 279 12T160 90T81 209T53 358Q53 438 81 506T160 624T279 703T428 731Q509 731 577 703T696 625T775 506T803 358Q803 278 775 210T696 91T577 12T428 -16ZM428 70Q509 70 571 107T667 209T702
358Q702 441 668 506T571 608T428 645Q348 645 286 608T189 506T154 358Q154 275 188 210T285 107T428 70ZM397 797L238 941H356L490 797H397Z" />
<glyph unicode="&#xd3;" horiz-adv-x="856" d="M428 -16Q347 -16 279 12T160 90T81 209T53 358Q53 438 81 506T160 624T279 703T428 731Q509 731 577 703T696 625T775 506T803 358Q803 278 775 210T696 91T577 12T428 -16ZM428 70Q509 70 571 107T667 209T702
358Q702 441 668 506T571 608T428 645Q348 645 286 608T189 506T154 358Q154 275 188 210T285 107T428 70ZM618 941L459 797H366L500 941H618Z" />
<glyph unicode="&#xd4;" horiz-adv-x="856" d="M428 -16Q347 -16 279 12T160 90T81 209T53 358Q53 438 81 506T160 624T279 703T428 731Q509 731 577 703T696 625T775 506T803 358Q803 278 775 210T696 91T577 12T428 -16ZM428 70Q509 70 571 107T667 209T702
358Q702 441 668 506T571 608T428 645Q348 645 286 608T189 506T154 358Q154 275 188 210T285 107T428 70ZM606 799H514L382 927H472L341 799H250L383 943H473L606 799Z" />
<glyph unicode="&#xd5;" horiz-adv-x="856" d="M428 -16Q347 -16 279 12T160 90T81 209T53 358Q53 438 81 506T160 624T279 703T428 731Q509 731 577 703T696 625T775 506T803 358Q803 278 775 210T696 91T577 12T428 -16ZM428 70Q509 70 571 107T667 209T702
358Q702 441 668 506T571 608T428 645Q348 645 286 608T189 506T154 358Q154 275 188 210T285 107T428 70ZM544 917L610 890Q600 838 567 814T498 790Q475 790 453 800T410 824Q390 837 379 843T356 850Q341 850 329 837T311 793L245 820Q255 872 288 896T357 920Q380
920 402 910T445 886Q465 873 476 867T499 860Q514 860 527 873T544 917Z" />
<glyph unicode="&#xd6;" horiz-adv-x="856" d="M428 -16Q347 -16 279 12T160 90T81 209T53 358Q53 438 81 506T160 624T279 703T428 731Q509 731 577 703T696 625T775 506T803 358Q803 278 775 210T696 91T577 12T428 -16ZM428 70Q509 70 571 107T667 209T702
358Q702 441 668 506T571 608T428 645Q348 645 286 608T189 506T154 358Q154 275 188 210T285 107T428 70ZM537 804Q510 804 492 822T474 865Q474 891 492 909T537 927Q563 927 581 909T599 865Q599 840 581 822T537 804ZM319 804Q293 804 275 822T257 865Q257
891 275 909T319 927Q346 927 364 909T382 865Q382 840 364 822T319 804Z" />
<glyph unicode="&#xd7;" horiz-adv-x="660" d="M525 214L473 162L135 501L187 553L525 214ZM473 553L525 501L187 162L135 214L473 553Z" />
<glyph unicode="&#xd8;" horiz-adv-x="856" d="M428 -16Q347 -16 279 12T160 90T81 209T53 358Q53 438 81 506T160 624T279 703T428 731Q509 731 577 703T696 625T775 506T803 358Q803 278 775 210T696 91T577 12T428 -16ZM428 70Q509 70 571 107T667 209T702
358Q702 441 668 506T571 608T428 645Q348 645 286 608T189 506T154 358Q154 275 188 210T285 107T428 70ZM104 -22L47 34L752 737L809 681L104 -22Z" />
<glyph unicode="&#xd9;" horiz-adv-x="728" d="M656 715V282Q656 141 579 63T364 -16Q228 -16 150 62T72 282V715H168V282Q168 180 219 125T364 70Q458 70 509 125T561 282V715H656ZM333 797L174 941H292L426 797H333Z" />
<glyph unicode="&#xda;" horiz-adv-x="728" d="M656 715V282Q656 141 579 63T364 -16Q228 -16 150 62T72 282V715H168V282Q168 180 219 125T364 70Q458 70 509 125T561 282V715H656ZM554 941L395 797H302L436 941H554Z" />
<glyph unicode="&#xdb;" horiz-adv-x="728" d="M656 715V282Q656 141 579 63T364 -16Q228 -16 150 62T72 282V715H168V282Q168 180 219 125T364 70Q458 70 509 125T561 282V715H656ZM542 799H450L318 927H408L277 799H186L319 943H409L542 799Z" />
<glyph unicode="&#xdc;" horiz-adv-x="728" d="M656 715V282Q656 141 579 63T364 -16Q228 -16 150 62T72 282V715H168V282Q168 180 219 125T364 70Q458 70 509 125T561 282V715H656ZM473 804Q446 804 428 822T410 865Q410 891 428 909T473 927Q499 927 517 909T535
865Q535 840 517 822T473 804ZM255 804Q229 804 211 822T193 865Q193 891 211 909T255 927Q282 927 300 909T318 865Q318 840 300 822T255 804Z" />
<glyph unicode="&#xdd;" horiz-adv-x="668" d="M382 0H286V307L18 715H130L348 369H322L541 715H650L382 305V0ZM524 941L365 797H272L406 941H524Z" />
<glyph unicode="&#xde;" horiz-adv-x="648" d="M166 480V563H362Q435 563 489 537T573 465T604 357Q604 295 574 249T489 177T362 151H166V234H362Q429 234 467 266T506 357Q506 415 468 447T362 480H166ZM176 0H80V715H176V0Z" />
<glyph unicode="&#xdf;" horiz-adv-x="630" d="M153 0H60V466Q60 551 92 610T181 700T309 731Q375 731 425 705T503 636T531 539Q531 488 503 447T423 381T298 357H295V400H333Q404 400 462 375T554 302T589 188Q589 127 561 81T485 10T373 -16Q343 -16 313 -9T255
10T207 41L256 107Q277 84 307 73T369 61Q422 61 457 95T493 187Q493 234 468 267T404 317T321 334H276V413H298Q359 413 397 447T435 538Q435 588 403 620T310 653Q242 653 198 604T153 454V0Z" />
<glyph unicode="&#xe0;" horiz-adv-x="558" d="M499 0H412V98L409 122V307Q409 366 371 400T268 435Q221 435 182 416T114 362L56 422Q97 465 150 488T270 512Q338 512 389 487T470 418T499 310V0ZM229 -16Q173 -16 130 4T63 61T39 143Q39 195 68 231T150 287T269
307H420V238H279Q216 238 176 216T135 146Q135 106 165 82T245 58Q293 58 332 77T394 130T421 210L454 192Q454 132 425 85T346 11T229 -16ZM248 587L109 761H215L329 587H248Z" />
<glyph unicode="&#xe1;" horiz-adv-x="558" d="M499 0H412V98L409 122V307Q409 366 371 400T268 435Q221 435 182 416T114 362L56 422Q97 465 150 488T270 512Q338 512 389 487T470 418T499 310V0ZM229 -16Q173 -16 130 4T63 61T39 143Q39 195 68 231T150 287T269
307H420V238H279Q216 238 176 216T135 146Q135 106 165 82T245 58Q293 58 332 77T394 130T421 210L454 192Q454 132 425 85T346 11T229 -16ZM435 761L296 587H215L329 761H435Z" />
<glyph unicode="&#xe2;" horiz-adv-x="558" d="M499 0H412V98L409 122V307Q409 366 371 400T268 435Q221 435 182 416T114 362L56 422Q97 465 150 488T270 512Q338 512 389 487T470 418T499 310V0ZM229 -16Q173 -16 130 4T63 61T39 143Q39 195 68 231T150 287T269
307H420V238H279Q216 238 176 216T135 146Q135 106 165 82T245 58Q293 58 332 77T394 130T421 210L454 192Q454 132 425 85T346 11T229 -16ZM441 587H355L232 745H309L186 587H103L227 761H317L441 587Z" />
<glyph unicode="&#xe3;" horiz-adv-x="558" d="M499 0H412V98L409 122V307Q409 366 371 400T268 435Q221 435 182 416T114 362L56 422Q97 465 150 488T270 512Q338 512 389 487T470 418T499 310V0ZM229 -16Q173 -16 130 4T63 61T39 143Q39 195 68 231T150 287T269
307H420V238H279Q216 238 176 216T135 146Q135 106 165 82T245 58Q293 58 332 77T394 130T421 210L454 192Q454 132 425 85T346 11T229 -16ZM380 726L444 698Q433 642 406 618T345 594Q321 594 299 603T256 629Q238 643 227 649T204 656Q190 656 179 641T164 593L100
621Q110 677 137 701T198 726Q223 726 244 716T287 691Q305 676 317 670T339 663Q353 663 364 678T380 726Z" />
<glyph unicode="&#xe4;" horiz-adv-x="558" d="M499 0H412V98L409 122V307Q409 366 371 400T268 435Q221 435 182 416T114 362L56 422Q97 465 150 488T270 512Q338 512 389 487T470 418T499 310V0ZM229 -16Q173 -16 130 4T63 61T39 143Q39 195 68 231T150 287T269
307H420V238H279Q216 238 176 216T135 146Q135 106 165 82T245 58Q293 58 332 77T394 130T421 210L454 192Q454 132 425 85T346 11T229 -16ZM377 614Q351 614 333 631T315 674Q315 700 333 717T377 735Q403 735 420 718T438 674Q438 649 421 632T377 614ZM167 614Q142
614 124 631T106 674Q106 700 124 717T167 735Q194 735 211 718T229 674Q229 649 212 632T167 614Z" />
<glyph unicode="&#xe5;" horiz-adv-x="558" d="M499 0H412V98L409 122V307Q409 366 371 400T268 435Q221 435 182 416T114 362L56 422Q97 465 150 488T270 512Q338 512 389 487T470 418T499 310V0ZM229 -16Q173 -16 130 4T63 61T39 143Q39 195 68 231T150 287T269
307H420V238H279Q216 238 176 216T135 146Q135 106 165 82T245 58Q293 58 332 77T394 130T421 210L454 192Q454 132 425 85T346 11T229 -16ZM386 674Q386 643 371 618T330 578T272 563Q241 563 215 578T174 618T158 674Q158 706 173 731T215 771T272 786Q304 786
329 772T370 732T386 674ZM325 674Q325 697 310 713T272 729Q251 729 235 713T219 674Q219 651 235 635T272 619Q294 619 309 635T325 674Z" />
<glyph unicode="&#xe6;" horiz-adv-x="965" d="M849 146L907 86Q868 38 812 11T684 -16Q604 -16 543 18T447 111T412 248Q412 325 445 384T537 478T670 512Q743 512 799 479T887 387T920 251V245H826V254Q826 308 806 348T750 411T669 434Q619 434 582 411T523
347T502 249Q502 193 525 151T590 85T687 62Q786 62 849 146ZM920 225H475V292H904L920 251V225ZM486 254H409V293Q409 357 371 396T268 435Q221 435 182 416T114 362L56 422Q97 465 150 488T270 512Q335 512 383 485T459 409T486 296V254ZM239 -16Q180 -16 135
4T65 60T39 142Q39 192 68 225T149 276T268 293H428V225H278Q215 225 175 207T135 146Q135 106 168 82T253 58Q299 58 339 75T406 123T438 193L497 176Q491 121 456 78T364 10T239 -16Z" />
<glyph unicode="&#xe7;" horiz-adv-x="552" d="M454 141L517 81Q481 36 428 10T308 -16Q232 -16 173 18T79 111T45 248Q45 324 79 383T173 477T310 512Q376 512 428 486T517 415L454 355Q431 390 396 411T312 432Q262 432 224 409T164 344T142 248Q142 194 163
153T223 88T312 64Q362 64 396 85T454 141ZM182 -220L216 -167Q227 -180 246 -188T285 -196Q309 -196 323 -185T338 -153Q338 -133 323 -121T278 -108Q269 -108 259 -109T239 -114L274 10H334L309 -78L279 -50Q316 -50 346 -62T393 -98T411 -151Q411 -196 378 -226T282
-257Q252 -257 226 -247T182 -220Z" />
<glyph unicode="&#xe8;" horiz-adv-x="604" d="M488 146L546 86Q507 38 451 11T323 -16Q242 -16 179 18T81 111T45 248Q45 325 79 384T173 478T308 512Q381 512 437 479T526 387T559 251V245H465V254Q465 308 445 348T390 411T308 434Q259 434 221 411T162 347T141
249Q141 193 164 151T230 85T326 62Q425 62 488 146ZM559 217H114V286H543L559 251V217ZM284 587L145 761H251L365 587H284Z" />
<glyph unicode="&#xe9;" horiz-adv-x="604" d="M488 146L546 86Q507 38 451 11T323 -16Q242 -16 179 18T81 111T45 248Q45 325 79 384T173 478T308 512Q381 512 437 479T526 387T559 251V245H465V254Q465 308 445 348T390 411T308 434Q259 434 221 411T162 347T141
249Q141 193 164 151T230 85T326 62Q425 62 488 146ZM559 217H114V286H543L559 251V217ZM471 761L332 587H251L365 761H471Z" />
<glyph unicode="&#xea;" horiz-adv-x="604" d="M488 146L546 86Q507 38 451 11T323 -16Q242 -16 179 18T81 111T45 248Q45 325 79 384T173 478T308 512Q381 512 437 479T526 387T559 251V245H465V254Q465 308 445 348T390 411T308 434Q259 434 221 411T162 347T141
249Q141 193 164 151T230 85T326 62Q425 62 488 146ZM559 217H114V286H543L559 251V217ZM477 587H391L268 745H345L222 587H139L263 761H353L477 587Z" />
<glyph unicode="&#xeb;" horiz-adv-x="604" d="M488 146L546 86Q507 38 451 11T323 -16Q242 -16 179 18T81 111T45 248Q45 325 79 384T173 478T308 512Q381 512 437 479T526 387T559 251V245H465V254Q465 308 445 348T390 411T308 434Q259 434 221 411T162 347T141
249Q141 193 164 151T230 85T326 62Q425 62 488 146ZM559 217H114V286H543L559 251V217ZM413 614Q387 614 369 631T351 674Q351 700 369 717T413 735Q439 735 456 718T474 674Q474 649 457 632T413 614ZM203 614Q178 614 160 631T142 674Q142 700 160 717T203 735Q230
735 247 718T265 674Q265 649 248 632T203 614Z" />
<glyph unicode="&#xec;" horiz-adv-x="225" d="M159 0H66V496H159V0ZM92 587L-25 761H77L169 587H92Z" />
<glyph unicode="&#xed;" horiz-adv-x="225" d="M159 0H66V496H159V0ZM251 761L134 587H57L149 761H251Z" />
<glyph unicode="&#xee;" horiz-adv-x="225" d="M159 0H66V496H159V0ZM272 587H190L70 742H153L33 587H-46L78 761H148L272 587Z" />
<glyph unicode="&#xef;" horiz-adv-x="225" d="M159 0H66V496H159V0ZM196 616Q171 616 154 632T136 674Q136 699 153 716T196 733Q221 733 238 716T256 674Q256 649 239 633T196 616ZM30 616Q5 616 -12 632T-30 674Q-30 699 -13 716T30 733Q55 733 72 716T90 674Q90
649 73 633T30 616Z" />
<glyph unicode="&#xf0;" horiz-adv-x="621" d="M520 237H491Q491 349 460 437T364 598T196 731L267 764Q366 713 435 639T540 474T577 281Q577 183 542 117T448 18T311 -16Q234 -16 174 17T80 107T45 237Q45 310 79 366T171 455T302 488Q374 488 422 455T495 366T520
237ZM311 64Q361 64 399 86T458 147T479 237Q479 288 458 327T399 388T311 410Q261 410 223 388T164 327T142 237Q142 187 163 148T223 86T311 64ZM515 677L215 535L184 601L484 742L515 677Z" />
<glyph unicode="&#xf1;" horiz-adv-x="589" d="M530 0H437V286Q437 359 404 395T315 432Q275 432 239 411T181 345T159 229V0H66V496H158V344H144Q155 407 184 443T253 496T336 512Q426 512 478 457T530 296V0ZM421 726L485 698Q474 642 447 618T386 594Q362 594
340 603T297 629Q279 643 268 649T245 656Q231 656 220 641T205 593L141 621Q151 677 178 701T239 726Q264 726 285 716T328 691Q346 676 358 670T380 663Q394 663 405 678T421 726Z" />
<glyph unicode="&#xf2;" horiz-adv-x="621" d="M311 -16Q233 -16 173 18T79 111T45 248Q45 325 79 384T173 477T311 512Q389 512 448 478T542 384T577 248Q577 171 543 112T449 18T311 -16ZM311 64Q361 64 399 87T458 152T479 248Q479 302 458 343T399 408T311
432Q261 432 223 409T163 344T142 248Q142 194 163 152T222 87T311 64ZM287 587L148 761H254L368 587H287Z" />
<glyph unicode="&#xf3;" horiz-adv-x="621" d="M311 -16Q233 -16 173 18T79 111T45 248Q45 325 79 384T173 477T311 512Q389 512 448 478T542 384T577 248Q577 171 543 112T449 18T311 -16ZM311 64Q361 64 399 87T458 152T479 248Q479 302 458 343T399 408T311
432Q261 432 223 409T163 344T142 248Q142 194 163 152T222 87T311 64ZM474 761L335 587H254L368 761H474Z" />
<glyph unicode="&#xf4;" horiz-adv-x="621" d="M311 -16Q233 -16 173 18T79 111T45 248Q45 325 79 384T173 477T311 512Q389 512 448 478T542 384T577 248Q577 171 543 112T449 18T311 -16ZM311 64Q361 64 399 87T458 152T479 248Q479 302 458 343T399 408T311
432Q261 432 223 409T163 344T142 248Q142 194 163 152T222 87T311 64ZM480 587H394L271 745H348L225 587H142L266 761H356L480 587Z" />
<glyph unicode="&#xf5;" horiz-adv-x="621" d="M311 -16Q233 -16 173 18T79 111T45 248Q45 325 79 384T173 477T311 512Q389 512 448 478T542 384T577 248Q577 171 543 112T449 18T311 -16ZM311 64Q361 64 399 87T458 152T479 248Q479 302 458 343T399 408T311
432Q261 432 223 409T163 344T142 248Q142 194 163 152T222 87T311 64ZM419 726L483 698Q472 642 445 618T384 594Q360 594 338 603T295 629Q277 643 266 649T243 656Q229 656 218 641T203 593L139 621Q149 677 176 701T237 726Q262 726 283 716T326 691Q344 676
356 670T378 663Q392 663 403 678T419 726Z" />
<glyph unicode="&#xf6;" horiz-adv-x="621" d="M311 -16Q233 -16 173 18T79 111T45 248Q45 325 79 384T173 477T311 512Q389 512 448 478T542 384T577 248Q577 171 543 112T449 18T311 -16ZM311 64Q361 64 399 87T458 152T479 248Q479 302 458 343T399 408T311
432Q261 432 223 409T163 344T142 248Q142 194 163 152T222 87T311 64ZM416 614Q390 614 372 631T354 674Q354 700 372 717T416 735Q442 735 459 718T477 674Q477 649 460 632T416 614ZM206 614Q181 614 163 631T145 674Q145 700 163 717T206 735Q233 735 250 718T268
674Q268 649 251 632T206 614Z" />
<glyph unicode="&#xf7;" horiz-adv-x="660" d="M561 319H99V395H561V319ZM330 460Q305 460 287 477T269 520Q269 546 287 563T330 581Q356 581 373 564T391 520Q391 495 374 478T330 460ZM330 133Q305 133 287 150T269 193Q269 219 287 236T330 254Q356 254 373
237T391 193Q391 168 374 151T330 133Z" />
<glyph unicode="&#xf8;" horiz-adv-x="623" d="M311 -16Q234 -16 174 18T80 111T45 248Q45 325 79 384T174 477T311 512Q389 512 449 478T543 384T577 248Q577 171 543 112T449 18T311 -16ZM311 64Q362 64 400 87T459 152T480 248Q480 302 459 343T400 408T311
432Q261 432 223 409T164 344T143 248Q143 194 164 152T223 87T311 64ZM82 -28L33 20L541 524L590 475L82 -28Z" />
<glyph unicode="&#xf9;" horiz-adv-x="587" d="M521 0H429V96L428 124V496H521V0ZM437 212L456 192Q460 131 435 85T363 11T255 -16Q166 -16 113 37T60 190V496H153V200Q153 133 185 99T276 64Q317 64 352 82T410 134T437 212ZM266 587L127 761H233L347 587H266Z" />
<glyph unicode="&#xfa;" horiz-adv-x="587" d="M521 0H429V96L428 124V496H521V0ZM437 212L456 192Q460 131 435 85T363 11T255 -16Q166 -16 113 37T60 190V496H153V200Q153 133 185 99T276 64Q317 64 352 82T410 134T437 212ZM453 761L314 587H233L347 761H453Z" />
<glyph unicode="&#xfb;" horiz-adv-x="587" d="M521 0H429V96L428 124V496H521V0ZM437 212L456 192Q460 131 435 85T363 11T255 -16Q166 -16 113 37T60 190V496H153V200Q153 133 185 99T276 64Q317 64 352 82T410 134T437 212ZM459 587H373L250 745H327L204 587H121L245
761H335L459 587Z" />
<glyph unicode="&#xfc;" horiz-adv-x="587" d="M521 0H429V96L428 124V496H521V0ZM437 212L456 192Q460 131 435 85T363 11T255 -16Q166 -16 113 37T60 190V496H153V200Q153 133 185 99T276 64Q317 64 352 82T410 134T437 212ZM395 614Q369 614 351 631T333 674Q333
700 351 717T395 735Q421 735 438 718T456 674Q456 649 439 632T395 614ZM185 614Q160 614 142 631T124 674Q124 700 142 717T185 735Q212 735 229 718T247 674Q247 649 230 632T185 614Z" />
<glyph unicode="&#xfd;" horiz-adv-x="555" d="M441 496H536L289 -79Q266 -134 231 -164T129 -194H75V-116H127Q158 -116 178 -101T212 -55L233 -2L19 496H118L297 51H261L441 496ZM441 761L302 587H221L335 761H441Z" />
<glyph unicode="&#xfe;" horiz-adv-x="639" d="M159 -194H66V720H159V344H138Q146 393 175 431T248 490T346 512Q418 512 474 478T562 384T594 248Q594 171 562 112T472 18T341 -16Q274 -16 225 11T151 86T131 193L150 212Q154 169 178 135T241 83T325 64Q377
64 415 87T475 153T497 248Q497 301 476 342T418 408T331 432Q281 432 243 408T182 339T159 237V-194Z" />
<glyph unicode="&#xff;" horiz-adv-x="555" d="M441 496H536L289 -79Q266 -134 231 -164T129 -194H75V-116H127Q158 -116 178 -101T212 -55L233 -2L19 496H118L297 51H261L441 496ZM383 614Q357 614 339 631T321 674Q321 700 339 717T383 735Q409 735 426 718T444
674Q444 649 427 632T383 614ZM173 614Q148 614 130 631T112 674Q112 700 130 717T173 735Q200 735 217 718T235 674Q235 649 218 632T173 614Z" />
<glyph unicode="&#x2013;" horiz-adv-x="500" d="M500 239H0V315H500V239Z" />
<glyph unicode="&#x2014;" horiz-adv-x="1000" d="M1000 239H0V315H1000V239Z" />
<glyph unicode="&#x2018;" horiz-adv-x="235" d="M122 742H182Q157 709 143 670T129 604L117 623Q144 623 162 606T181 562Q181 536 163 518T120 499Q91 499 72 520T53 573Q53 599 62 629T88 689T122 742Z" />
<glyph unicode="&#x2019;" horiz-adv-x="235" d="M113 497H53Q78 531 93 569T106 635L118 615Q91 615 73 633T54 677Q54 703 72 721T116 740Q145 740 164 720T183 666Q183 640 173 610T147 550T113 497Z" />
<glyph unicode="&#x201a;" horiz-adv-x="235" d="M113 -126H53Q78 -92 93 -54T106 12L118 -8Q91 -8 73 10T54 54Q54 80 72 98T116 117Q145 117 164 97T183 43Q183 17 173 -13T147 -73T113 -126Z" />
<glyph unicode="&#x201c;" horiz-adv-x="391" d="M122 742H182Q157 709 143 670T129 604L117 623Q144 623 162 606T181 562Q181 536 163 518T120 499Q91 499 72 520T53 573Q53 599 62 629T88 689T122 742ZM278 742H338Q313 709 299 670T285 604L273 623Q300 623
318 606T337 562Q337 536 319 518T276 499Q247 499 228 520T209 573Q209 599 218 629T244 689T278 742Z" />
<glyph unicode="&#x201d;" horiz-adv-x="391" d="M113 497H53Q78 531 93 569T106 635L118 615Q91 615 73 633T54 677Q54 703 72 721T116 740Q145 740 164 720T183 666Q183 640 173 610T147 550T113 497ZM269 497H209Q234 531 249 569T262 635L274 615Q247 615
229 633T210 677Q210 703 228 721T272 740Q301 740 320 720T339 666Q339 640 329 610T303 550T269 497Z" />
<glyph unicode="&#x201e;" horiz-adv-x="391" d="M113 -126H53Q78 -92 93 -54T106 12L118 -8Q91 -8 73 10T54 54Q54 80 72 98T116 117Q145 117 164 97T183 43Q183 17 173 -13T147 -73T113 -126ZM269 -126H209Q234 -92 249 -54T262 12L274 -8Q247 -8 229 10T210
54Q210 80 228 98T272 117Q301 117 320 97T339 43Q339 17 329 -13T303 -73T269 -126Z" />
<glyph unicode="&#x2022;" horiz-adv-x="354" d="M59 274Q59 307 75 333T118 376T177 392Q210 392 236 376T279 334T295 274Q295 242 279 215T237 172T177 156Q145 156 118 172T75 215T59 274Z" />
<glyph unicode="&#x2039;" horiz-adv-x="333" d="M182 34L38 248L182 462H286L140 248L286 34H182Z" />
<glyph unicode="&#x203a;" horiz-adv-x="333" d="M151 462L296 248L151 34H48L194 248L48 462H151Z" />
</font>
</defs>
</svg>
