<?xml version="1.0" standalone="no"?>
<!DOCTYPE svg PUBLIC "-//W3C//DTD SVG 1.1//EN" "http://www.w3.org/Graphics/SVG/1.1/DTD/svg11.dtd">
<svg xmlns="http://www.w3.org/2000/svg">
<defs >
<font id="WixMadeforDisplay" horiz-adv-x="592" ><font-face
    font-family="Wix Madefor Display SemiBold"
    units-per-em="1000"
    panose-1="2 11 5 3 2 2 3 2 2 3"
    ascent="1008"
    descent="-252"
    alphabetic="0" />
<glyph unicode=" " horiz-adv-x="195" />
<glyph unicode="!" horiz-adv-x="248" d="M197 62Q197 32 176 11T124 -10Q93 -10 72 11T50 62Q50 92 71 113T124 134Q154 134 175 113T197 62ZM153 217H95Q93 233 90 270T83 357T75 458T68 556T62 632T59 669Q59 696 78 713T124 731Q151 731 169 714T188 669Q188
663 186 633T181 556T173 458T165 357T158 271T153 217Z" />
<glyph unicode="&quot;" horiz-adv-x="402" d="M146 485H103Q93 527 85 567T73 638T68 684Q68 711 84 727T124 743Q147 743 163 727T180 684Q180 670 176 639T163 567T146 485ZM300 485H257Q247 527 239 567T227 638T222 684Q222 711 238 727T278 743Q301 743
317 727T334 684Q334 670 330 639T317 567T300 485Z" />
<glyph unicode="#" horiz-adv-x="689" d="M448 0H349L501 715H600L448 0ZM574 178H38L56 265H592L574 178ZM240 715H339L187 0H88L240 715ZM114 537H650L632 450H96L114 537Z" />
<glyph unicode="$" horiz-adv-x="660" d="M53 121L125 190Q165 139 219 112T336 84Q386 84 425 99T486 140T508 202Q508 235 491 257T433 295T327 321Q198 341 138 388T78 518Q78 577 111 623T203 695T335 721Q410 721 476 688T591 594L519 525Q484 577 437 604T337
631Q267 631 224 601T181 523Q181 492 197 471T248 437T342 414Q485 392 548 342T611 206Q611 144 575 96T478 21T338 -6Q249 -6 176 27T53 121ZM375 373H307V831H375V373ZM373 -116H305V363H373V-116Z" />
<glyph unicode="%" horiz-adv-x="786" d="M205 0H90L581 715H696L205 0ZM597 -9Q551 -9 514 12T455 71T433 155Q433 201 454 238T513 296T597 318Q644 318 680 297T738 238T760 155Q760 108 739 71T681 13T597 -9ZM597 74Q629 74 650 97T672 154Q672 189 651 212T597
235Q564 235 543 212T522 154Q522 120 543 97T597 74ZM189 397Q143 397 106 418T47 477T25 561Q25 607 46 644T105 702T189 724Q236 724 272 703T330 644T352 561Q352 514 331 477T273 419T189 397ZM189 480Q221 480 242 503T264 560Q264 595 243 618T189 641Q156
641 135 618T114 560Q114 526 135 503T189 480Z" />
<glyph unicode="&amp;" horiz-adv-x="696" d="M667 297L556 143Q491 57 427 21T282 -16Q208 -16 154 10T70 83T40 187Q40 269 97 326T272 418L295 348Q222 323 189 284T155 196Q155 145 191 110T287 75Q320 75 350 86T411 124T477 201L587 354L667 297ZM689 64L619
-10L246 338L229 353Q183 395 157 428T119 492T108 555Q108 604 134 644T206 707T307 731Q364 731 409 707T480 643T506 554Q506 506 480 467T408 399T304 351L278 420Q337 440 371 472T405 549Q405 590 378 617T308 644Q269 644 241 618T213 551Q213 528 223 506T256
458T318 400L338 384L689 64Z" />
<glyph unicode="&apos;" horiz-adv-x="248" d="M146 485H103Q93 527 85 567T73 638T68 684Q68 711 84 727T124 743Q147 743 163 727T180 684Q180 670 176 639T163 567T146 485Z" />
<glyph unicode="(" horiz-adv-x="334" d="M51 301Q51 422 87 530T193 731H301Q230 627 195 521T160 301Q160 80 301 -129H193Q124 -37 88 72T51 301Z" />
<glyph unicode=")" horiz-adv-x="334" d="M282 301Q282 181 246 72T141 -129H33Q174 80 174 301Q174 414 139 520T33 731H141Q210 639 246 531T282 301Z" />
<glyph unicode="*" horiz-adv-x="431" d="M216 487Q200 445 185 415T161 371Q145 349 121 349Q103 349 89 362T75 392Q75 409 87 426Q97 439 120 462T179 513Q133 516 104 521T59 530Q23 540 23 573Q23 593 35 606T67 620Q80 620 93 615Q107 609 131 596T192 556Q181
600 175 633T169 682Q169 705 181 718T216 731Q237 731 249 718T262 682Q262 666 256 633T239 556Q277 583 300 596T338 615Q352 620 364 620Q384 620 396 607T408 573Q408 540 373 530Q358 526 328 521T252 513Q288 485 311 462T344 426Q356 409 356 392Q356 376
342 363T310 349Q286 349 271 371Q262 384 247 414T216 487Z" />
<glyph unicode="+" horiz-adv-x="660" d="M547 312H113V403H547V312ZM375 140H285V575H375V140Z" />
<glyph unicode="," horiz-adv-x="248" d="M118 -128H48Q76 -93 93 -53T107 15L124 -8Q93 -8 72 12T51 63Q51 93 71 113T121 134Q155 134 176 111T198 50Q198 23 187 -9T157 -72T118 -128Z" />
<glyph unicode="-" horiz-adv-x="336" d="M306 238H30V334H306V238Z" />
<glyph unicode="." horiz-adv-x="248" d="M198 62Q198 32 177 11T124 -10Q94 -10 73 11T51 62Q51 92 72 113T124 134Q155 134 176 113T198 62Z" />
<glyph unicode="/" horiz-adv-x="498" d="M157 0H51L341 731H447L157 0Z" />
<glyph unicode="0" horiz-adv-x="652" d="M326 -16Q240 -16 178 28T82 155T49 357Q49 535 122 633T326 731Q455 731 528 633T602 357Q602 239 569 156T475 28T326 -16ZM326 78Q402 78 444 149T486 357Q486 494 444 565T326 637Q250 637 208 566T166 357Q166 221
208 150T326 78Z" />
<glyph unicode="1" horiz-adv-x="476" d="M271 715H371V0H257V594L76 464V581L271 715Z" />
<glyph unicode="2" horiz-adv-x="598" d="M537 0H48V93L310 332Q365 383 393 425T421 513Q421 547 405 575T360 619T293 635Q240 635 195 606T113 520L38 593Q88 661 153 696T298 731Q369 731 422 703T504 625T533 513Q533 467 514 425T457 338T360 242Q335 219
306 193T248 142T192 93H537V0Z" />
<glyph unicode="3" horiz-adv-x="614" d="M32 108L107 181Q143 133 191 107T298 80Q367 80 409 114T451 205Q451 242 431 268T376 309T295 324H228V418H295Q334 418 365 431T413 469T431 525Q431 575 396 605T302 635Q247 635 204 609T127 534L52 607Q100 666
164 698T305 731Q377 731 431 705T517 634T548 533Q548 482 518 443T433 382T307 359L325 396Q397 396 452 371T537 302T568 201Q568 139 534 90T441 13T301 -16Q220 -16 152 16T32 108Z" />
<glyph unicode="4" horiz-adv-x="660" d="M518 0H406V158H40V249L406 715H518V249H622V158H518V0ZM406 571L151 249H406V571Z" />
<glyph unicode="5" horiz-adv-x="606" d="M111 191Q145 140 191 110T297 80Q343 80 377 101T431 158T451 239Q451 283 432 316T380 368T303 387Q256 387 220 366T157 307L117 310Q127 361 155 399T226 458T325 480Q395 480 449 449T534 364T565 239Q565 165 531
107T436 17T300 -16Q218 -16 152 18T36 119L111 191ZM522 622H151L200 672L157 307H57L106 715H522V622Z" />
<glyph unicode="6" horiz-adv-x="631" d="M316 -16Q236 -16 175 19T80 115T46 255Q46 336 80 413T180 566T337 715H489Q395 642 333 582T233 470T178 368L162 375Q189 420 235 448T341 476Q411 476 467 445T556 361T589 237Q589 164 554 107T457 17T316 -16ZM317
79Q363 79 399 99T455 155T476 234Q476 278 456 312T399 366T317 386Q271 386 236 366T180 312T159 234Q159 190 179 155T235 100T317 79Z" />
<glyph unicode="7" horiz-adv-x="600" d="M551 715V621L206 0H81L432 621H49V715H551Z" />
<glyph unicode="8" horiz-adv-x="637" d="M318 -16Q239 -16 177 11T80 87T45 197Q45 257 81 303T178 376T318 403Q398 403 459 377T556 304T591 197Q591 136 556 88T460 12T318 -16ZM318 355Q248 355 193 378T105 442T73 535Q73 591 104 635T191 705T318 731Q391
731 446 706T532 636T564 535Q564 483 532 442T445 378T318 355ZM318 78Q363 78 398 94T454 138T475 201Q475 237 455 264T399 308T318 324Q274 324 239 308T183 265T162 201Q162 166 182 138T238 94T318 78ZM318 417Q356 417 385 431T432 471T450 527Q450 559
433 584T386 623T318 638Q282 638 252 624T204 584T187 527Q187 496 204 471T251 432T318 417Z" />
<glyph unicode="9" horiz-adv-x="631" d="M315 731Q395 731 456 696T551 601T585 460Q585 379 551 302T451 150T294 0H142Q237 73 299 133T398 245T453 347L469 340Q443 295 396 267T290 239Q221 239 165 270T76 354T43 478Q43 551 78 608T174 698T315 731ZM314
636Q268 636 232 616T176 561T155 481Q155 438 175 404T232 349T314 329Q361 329 396 349T452 403T473 481Q473 526 453 561T397 616T314 636Z" />
<glyph unicode=":" horiz-adv-x="248" d="M198 62Q198 32 177 11T124 -10Q94 -10 73 11T51 62Q51 92 72 113T124 134Q155 134 176 113T198 62ZM198 427Q198 397 177 376T124 355Q94 355 73 376T51 427Q51 457 72 478T124 499Q155 499 176 478T198 427Z" />
<glyph unicode=";" horiz-adv-x="248" d="M118 -128H48Q76 -93 93 -53T107 15L124 -8Q93 -8 72 12T51 63Q51 93 71 113T121 134Q155 134 176 111T198 50Q198 23 187 -9T157 -72T118 -128ZM198 427Q198 397 177 376T124 355Q94 355 73 376T51 427Q51 457 72 478T124
499Q155 499 176 478T198 427Z" />
<glyph unicode="&lt;" horiz-adv-x="660" d="M117 395L543 227V122L117 298V395ZM117 421L543 596V494L117 327V421Z" />
<glyph unicode="=" horiz-adv-x="660" d="M541 205H118V296H541V205ZM541 419H118V510H541V419Z" />
<glyph unicode="&gt;" horiz-adv-x="660" d="M117 491V596L543 420V324L117 491ZM117 122V224L543 391V298L117 122Z" />
<glyph unicode="?" horiz-adv-x="571" d="M308 217H220Q216 261 226 296T264 361T339 424Q373 448 389 472T405 527Q405 575 371 605T282 635Q233 635 189 609T107 526L32 599Q81 663 146 697T285 731Q352 731 404 704T487 632T518 528Q518 473 487 429T392 347Q344
318 326 289T308 217ZM338 62Q338 32 317 11T264 -10Q234 -10 213 11T191 62Q191 92 212 113T264 134Q295 134 316 113T338 62Z" />
<glyph unicode="@" horiz-adv-x="1035" d="M487 44Q429 44 382 72T307 149T279 260Q279 325 307 374T382 450T487 478Q538 478 576 455T637 392T659 300Q659 289 658 277T654 251L631 265Q631 304 615 334T570 381T504 399Q467 399 438 381T393 331T376 260Q376
221 392 191T438 142T506 123Q545 123 577 141T628 191T648 260L671 240Q681 185 658 141T590 70T487 44ZM756 -15L823 -89Q796 -118 752 -142T650 -180T525 -194Q425 -194 340 -160T191 -63T92 82T56 262Q56 362 92 447T193 596T345 695T533 731Q630 731 712 698T854
604T948 463T982 289Q982 174 930 109T786 44Q717 44 674 86T631 199V345L632 351V464H725V218Q725 173 744 153T794 132Q837 132 860 171T883 283Q883 387 839 468T716 595T533 641Q452 641 383 613T263 533T184 412T155 261Q155 185 183 118T261 2T379 -76T525
-104Q602 -104 664 -79T756 -15Z" />
<glyph unicode="A" horiz-adv-x="756" d="M582 172H170V270H582V172ZM724 0H602L357 637H395L150 0H32L315 715H441L724 0Z" />
<glyph unicode="B" horiz-adv-x="672" d="M76 0V715H363Q433 715 485 692T566 626T595 528Q595 475 567 435T486 372T363 349H201V399H377Q452 399 508 375T595 308T626 205Q626 144 595 98T508 26T377 0H76ZM191 97H377Q439 97 474 126T509 209Q509 261 474 290T377
319H181V415H358Q414 415 446 442T479 518Q479 565 447 591T358 618H191V97Z" />
<glyph unicode="C" horiz-adv-x="748" d="M634 196L711 119Q664 57 589 21T422 -16Q341 -16 274 12T157 90T80 208T52 357Q52 438 80 506T158 625T277 703T425 731Q516 731 590 695T711 596L634 519Q599 570 546 599T425 629Q353 629 296 594T206 497T173 357Q173
279 206 218T296 122T425 86Q493 86 546 116T634 196Z" />
<glyph unicode="D" horiz-adv-x="750" d="M76 0V715H319Q433 715 518 669T651 543T699 358Q699 254 652 173T519 46T319 0H76ZM191 99H319Q399 99 457 131T547 222T579 358Q579 436 548 494T458 584T319 616H191V99Z" />
<glyph unicode="E" horiz-adv-x="613" d="M568 0H76V715H568V617H191V98H568V0ZM549 314H181V412H549V314Z" />
<glyph unicode="F" horiz-adv-x="587" d="M191 0H76V715H548V617H191V0ZM529 314H181V412H529V314Z" />
<glyph unicode="G" horiz-adv-x="806" d="M749 0H642V101L654 96Q619 43 558 14T420 -16Q341 -16 274 11T157 89T80 207T52 358Q52 438 80 506T159 624T279 703T429 731Q523 731 599 695T724 596L647 519Q611 570 556 599T429 629Q355 629 297 594T205 497T172
358Q172 279 205 217T297 120T432 85Q507 85 565 117T650 208L641 169V290H423V384H749V0Z" />
<glyph unicode="H" horiz-adv-x="749" d="M558 0V715H673V0H558ZM191 0H76V715H191V0ZM181 319V418H568V319H181Z" />
<glyph unicode="I" horiz-adv-x="267" d="M191 0H76V715H191V0Z" />
<glyph unicode="J" horiz-adv-x="665" d="M597 715V276Q597 136 524 60T316 -16Q235 -16 175 14T80 100T37 236L152 250Q160 170 202 128T316 86Q397 86 439 135T482 276V715H597Z" />
<glyph unicode="K" horiz-adv-x="721" d="M191 0H76V715H191V0ZM706 0H545L166 371H181L518 715H664L304 357V385L706 0Z" />
<glyph unicode="L" horiz-adv-x="572" d="M538 0H76V715H191V100H538V0Z" />
<glyph unicode="M" horiz-adv-x="911" d="M498 71H413L130 660L186 662V0H74V715H212L483 147H430L701 715H836V0H724V662L780 660L498 71Z" />
<glyph unicode="N" horiz-adv-x="751" d="M187 0H75V715H197L603 113H564V715H676V0H554L147 602H187V0Z" />
<glyph unicode="O" horiz-adv-x="860" d="M430 -16Q348 -16 279 12T159 90T80 209T52 358Q52 438 80 506T159 624T279 703T430 731Q512 731 581 703T701 625T780 506T808 358Q808 278 780 210T701 91T581 12T430 -16ZM430 86Q506 86 564 121T655 217T688 358Q688
437 655 498T564 594T430 629Q355 629 297 594T205 498T172 358Q172 279 205 218T296 121T430 86Z" />
<glyph unicode="P" horiz-adv-x="653" d="M191 0H76V715H362Q436 715 492 689T579 615T611 503Q611 440 580 392T492 318T362 291H181V389H362Q423 389 458 419T494 503Q494 556 459 586T362 617H191V0Z" />
<glyph unicode="Q" horiz-adv-x="860" d="M721 -42L453 234L520 300L788 24L721 -42ZM430 -16Q348 -16 279 12T159 90T80 209T52 358Q52 438 80 506T159 624T279 703T430 731Q512 731 581 703T701 625T780 506T808 358Q808 278 780 210T701 91T580 12T430 -16ZM430
86Q507 86 565 120T655 216T688 358Q688 437 655 498T564 594T430 629Q355 629 297 594T205 498T172 358Q172 279 205 218T296 121T430 86Z" />
<glyph unicode="R" horiz-adv-x="701" d="M191 0H76V715H362Q436 715 492 689T579 615T611 503Q611 440 580 392T492 318T362 291H181V389H362Q423 389 458 419T494 503Q494 556 459 586T362 617H191V0ZM683 0H540L280 333H412L683 0Z" />
<glyph unicode="S" horiz-adv-x="692" d="M33 117L113 195Q140 161 177 136T258 98T350 85Q402 85 440 99T501 139T523 199Q523 245 482 272T336 315Q239 329 179 355T92 421T64 515Q64 579 99 627T197 703T341 731Q435 731 507 695T632 599L554 521Q515 572 463
601T342 631Q271 631 226 601T181 521Q181 494 198 476T254 444T360 421Q459 406 520 378T611 307T640 204Q640 138 603 89T500 12T348 -16Q247 -16 168 20T33 117Z" />
<glyph unicode="T" horiz-adv-x="640" d="M377 0H262V626H377V0ZM606 616H34V715H606V616Z" />
<glyph unicode="U" horiz-adv-x="734" d="M666 715V282Q666 141 587 63T367 -16Q228 -16 148 62T68 282V715H183V282Q183 190 231 138T367 86Q455 86 503 138T552 282V715H666Z" />
<glyph unicode="V" horiz-adv-x="742" d="M430 0H312L32 715H156L391 84H355L590 715H711L430 0Z" />
<glyph unicode="W" horiz-adv-x="1065" d="M819 0H690L526 574H540L375 0H246L36 715H159L329 90H298L478 715H588L768 90H740L909 715H1029L819 0Z" />
<glyph unicode="X" horiz-adv-x="704" d="M152 0H16L291 392L292 350L40 715H176L366 427H339L529 715H663L413 350V392L688 0H551L338 315H366L152 0Z" />
<glyph unicode="Y" horiz-adv-x="689" d="M402 0H287V298L16 715H151L358 380H332L540 715H673L402 297V0Z" />
<glyph unicode="Z" horiz-adv-x="632" d="M589 0H44V99L436 616H57V715H576V616L184 99H589V0Z" />
<glyph unicode="[" horiz-adv-x="322" d="M283 -129H60V731H283V642H170V-40H283V-129Z" />
<glyph unicode="\" horiz-adv-x="498" d="M447 0H341L51 731H157L447 0Z" />
<glyph unicode="]" horiz-adv-x="322" d="M263 -129H39V-40H153V642H39V731H263V-129Z" />
<glyph unicode="^" horiz-adv-x="660" d="M294 715H392L573 354H466L294 715ZM268 715H364L190 354H87L268 715Z" />
<glyph unicode="_" horiz-adv-x="500" d="M500 -142H0V-52H500V-142Z" />
<glyph unicode="`" horiz-adv-x="595" d="M316 587L173 761H297L411 587H316Z" />
<glyph unicode="a" horiz-adv-x="566" d="M511 0H408V99L403 120V307Q403 363 367 394T269 426Q224 426 186 408T119 358L55 428Q96 469 151 492T273 515Q344 515 397 491T481 420T511 310V0ZM231 -16Q174 -16 130 5T62 62T38 146Q38 198 68 234T151 290T275 310H415V233H285Q226
233 190 212T153 150Q153 113 181 92T254 70Q297 70 333 88T390 137T415 210L451 193Q451 132 423 85T345 11T231 -16Z" />
<glyph unicode="b" horiz-adv-x="645" d="M173 0H62V720H174V345H147Q155 395 183 433T255 493T354 515Q424 515 480 481T570 387T603 250Q603 172 570 112T479 18T350 -16Q284 -16 236 11T164 86T143 193L166 211Q171 172 193 142T250 95T326 78Q375 78 410 100T466
161T486 250Q486 299 467 338T414 399T333 421Q287 421 251 399T195 336T174 242V129L173 124V0Z" />
<glyph unicode="c" horiz-adv-x="559" d="M453 153L525 83Q488 37 434 11T310 -16Q233 -16 173 18T77 112T42 250Q42 327 77 386T173 480T313 515Q381 515 434 489T525 416L453 346Q431 380 398 400T317 421Q271 421 235 399T179 339T159 250Q159 200 179 161T235
100T317 78Q364 78 397 99T453 153Z" />
<glyph unicode="d" horiz-adv-x="645" d="M583 0H472V124L471 129V242Q471 296 451 336T396 398T314 421Q268 421 233 399T178 338T159 250Q159 200 179 161T235 100T319 78Q361 78 395 95T452 142T479 211L502 193Q507 134 482 87T409 12T295 -16Q224 -16 167
18T76 112T42 250Q42 327 75 387T166 481T293 515Q349 515 392 494T463 434T498 345H471V720H583V0Z" />
<glyph unicode="e" horiz-adv-x="607" d="M490 151L554 81Q515 36 457 10T328 -16Q244 -16 180 18T79 112T42 249Q42 327 77 387T173 481T310 515Q384 515 441 482T531 390T564 254V248H453V259Q453 309 435 346T384 404T309 425Q264 425 230 404T176 344T157
251Q157 197 179 157T241 96T333 74Q428 74 490 151ZM564 214H120V290H548L564 253V214Z" />
<glyph unicode="f" horiz-adv-x="400" d="M238 0H126V587Q126 720 259 720H369V631H294Q264 631 251 618T238 574V0ZM369 408H33V499H369V408Z" />
<glyph unicode="g" horiz-adv-x="645" d="M583 55Q583 -24 547 -83T449 -176T305 -210Q234 -210 174 -187T75 -122L140 -47Q169 -80 208 -98T300 -117Q352 -117 390 -96T450 -38T471 50V242Q471 301 449 340T392 400T314 421Q268 421 233 399T179 340T159 255Q159
207 179 170T235 112T319 91Q360 91 394 107T451 154T479 223L503 205Q508 146 483 99T409 24T295 -4Q224 -4 167 28T76 119T42 254Q42 331 76 389T167 481T293 515Q346 515 388 495T459 437T496 345H472V499H583V55Z" />
<glyph unicode="h" horiz-adv-x="595" d="M539 0H427V288Q427 355 397 388T316 421Q279 421 247 402T194 342T174 236V0H62V720H174V345H159Q169 411 197 447T265 499T345 515Q435 515 487 460T539 300V0Z" />
<glyph unicode="i" horiz-adv-x="237" d="M174 0H62V499H174V0ZM118 602Q89 602 68 622T47 670Q47 700 68 720T118 740Q148 740 168 720T189 671Q189 642 169 622T118 602Z" />
<glyph unicode="j" horiz-adv-x="237" d="M-30 -194V-101H6Q36 -101 49 -88T62 -44V499H174V-61Q174 -194 41 -194H-30ZM118 602Q89 602 68 622T47 670Q47 700 68 720T118 740Q148 740 168 720T189 671Q189 642 169 622T118 602Z" />
<glyph unicode="k" horiz-adv-x="585" d="M174 0H62V720H174V0ZM573 0H425L146 259H156L405 499H544L279 249V268L573 0Z" />
<glyph unicode="l" horiz-adv-x="237" d="M174 0H62V720H174V0Z" />
<glyph unicode="m" horiz-adv-x="919" d="M863 0H751V291Q751 356 724 388T650 421Q616 421 586 402T538 343T519 239V0H407V291Q407 356 380 388T306 421Q272 421 242 402T193 343T174 239V0H62V499H173V384L166 385Q180 435 207 463T268 503T336 515Q401 515
444 480T501 375L488 374Q503 427 532 458T600 502T676 515Q764 515 813 460T863 300V0Z" />
<glyph unicode="n" horiz-adv-x="595" d="M539 0H427V288Q427 355 397 388T316 421Q279 421 247 402T194 342T174 236V0H62V499H173V345H158Q168 411 197 447T265 499T345 515Q435 515 487 460T539 300V0Z" />
<glyph unicode="o" horiz-adv-x="628" d="M314 -16Q235 -16 174 18T77 112T42 250Q42 327 77 387T173 481T314 515Q394 515 455 481T551 387T586 250Q586 172 552 112T456 18T314 -16ZM314 78Q361 78 396 100T450 160T470 250Q470 300 451 338T396 399T314 421Q268
421 233 399T179 339T159 250Q159 199 178 161T233 100T314 78Z" />
<glyph unicode="p" horiz-adv-x="645" d="M174 -194H62V499H173V345H149Q156 395 184 433T256 493T354 515Q424 515 480 481T570 387T603 250Q603 172 570 112T479 18T350 -16Q284 -16 236 11T164 86T143 193L166 211Q171 172 193 142T250 95T326 78Q375 78 410
100T466 161T486 250Q486 299 467 338T414 399T332 421Q286 421 251 399T195 336T174 242V-194Z" />
<glyph unicode="q" horiz-adv-x="645" d="M583 -194H471V242Q471 296 451 336T396 398T314 421Q268 421 233 399T179 338T159 250Q159 200 179 161T235 100T319 78Q361 78 395 95T452 142T479 211L502 193Q507 134 482 87T409 12T295 -16Q224 -16 167 18T76 112T42
250Q42 327 75 387T166 481T293 515Q349 515 391 494T462 434T496 345H472V499H583V-194Z" />
<glyph unicode="r" horiz-adv-x="386" d="M358 508V404H334Q288 404 252 384T195 322T174 212V0H62V499H173V338H158Q168 403 197 440T265 492T343 508H358Z" />
<glyph unicode="s" horiz-adv-x="532" d="M25 76L90 146Q124 111 170 91T268 71Q320 71 351 90T382 141Q382 169 355 184T257 209Q147 225 98 259T48 355Q48 403 76 439T152 495T262 515Q334 515 389 491T486 426L421 355Q390 389 350 409T263 429Q216 429 187
411T158 363Q158 339 184 327T278 305Q388 289 440 253T492 148Q492 99 463 62T383 5T264 -16Q191 -16 130 8T25 76Z" />
<glyph unicode="t" horiz-adv-x="410" d="M375 0H252Q189 0 157 32T125 127V636H237V144Q237 118 249 106T287 93H375V0ZM368 408H32V499H368V408Z" />
<glyph unicode="u" horiz-adv-x="593" d="M530 0H419V96L418 124V499H530V0ZM426 211L449 192Q452 131 427 84T357 11T250 -16Q162 -16 109 37T56 190V499H168V201Q168 141 198 110T280 78Q317 78 348 95T401 142T426 211Z" />
<glyph unicode="v" horiz-adv-x="572" d="M341 0H232L18 499H135L303 73H272L441 499H554L341 0Z" />
<glyph unicode="w" horiz-adv-x="807" d="M632 0H516L389 400H418L291 0H175L18 499H130L253 64H221L356 499H455L590 64H558L680 499H789L632 0Z" />
<glyph unicode="x" horiz-adv-x="550" d="M139 0H11L204 259L28 499H155L275 324L396 499H523L347 259L539 0H411L275 191L139 0Z" />
<glyph unicode="y" horiz-adv-x="572" d="M441 499H554L311 -69Q286 -130 246 -162T137 -194H77V-101H132Q163 -101 183 -87T216 -43L233 -1L18 499H135L307 62H268L441 499Z" />
<glyph unicode="z" horiz-adv-x="508" d="M471 0H39V91L323 408H49V499H461V408L177 91H471V0Z" />
<glyph unicode="{" horiz-adv-x="392" d="M353 -40V-129H263Q129 -129 129 4V200Q129 231 116 244T73 257H39V346H73Q103 346 116 359T129 404V598Q129 731 263 731H353V642H296Q265 642 252 629T239 584V423Q239 289 106 289V314Q239 314 239 181V17Q239 -13
252 -26T296 -40H353Z" />
<glyph unicode="|" horiz-adv-x="229" d="M170 -129H60V736H170V-129Z" />
<glyph unicode="}" horiz-adv-x="392" d="M39 -129V-40H96Q126 -40 139 -27T153 17V181Q153 314 286 314V289Q153 289 153 423V584Q153 615 140 628T96 642H39V731H129Q263 731 263 598V404Q263 373 276 360T319 346H352V257H319Q289 257 276 244T263 200V4Q263
-129 129 -129H39Z" />
<glyph unicode="~" horiz-adv-x="660" d="M496 453L579 410Q558 330 522 294T429 258Q408 258 380 269T314 311Q289 330 275 340T251 353T234 357Q208 357 191 332T164 261L80 304Q102 384 138 420T230 456Q251 456 279 445T345 403Q371 384 385 374T409 361T426
357Q452 357 469 382T496 453Z" />
<glyph unicode="&#xa0;" horiz-adv-x="195" />
<glyph unicode="&#xa1;" horiz-adv-x="248" d="M50 427Q50 457 71 478T124 499Q154 499 175 478T197 427Q197 397 176 376T124 355Q93 355 72 376T50 427ZM95 272H153Q155 257 158 219T165 132T173 32T180 -66T186 -143T188 -180Q188 -207 170 -224T124 -242Q97
-242 78 -225T59 -180Q59 -174 61 -143T67 -66T75 31T83 132T90 219T95 272Z" />
<glyph unicode="&#xa2;" horiz-adv-x="660" d="M504 150L572 83Q535 37 481 11T358 -16Q281 -16 220 18T124 112T89 250Q89 327 124 386T221 480T360 515Q428 515 481 489T572 416L504 350Q483 382 448 404T365 426Q317 426 280 404T221 341T200 250Q200 198 221
159T279 96T365 73Q414 73 448 95T504 150ZM393 -116H325V615H393V-116Z" />
<glyph unicode="&#xa3;" horiz-adv-x="660" d="M612 0H61V93H612V0ZM498 308H71V397H498V308ZM613 611L537 541Q507 590 473 612T396 635Q337 635 305 596T273 489V47H162V487Q162 560 190 615T271 700T396 731Q465 731 520 700T613 611Z" />
<glyph unicode="&#xa4;" horiz-adv-x="602" d="M301 242Q337 242 365 259T410 307T427 376Q427 414 411 444T366 491T301 509Q266 509 237 492T192 445T175 376Q175 337 191 307T237 260T301 242ZM301 160Q267 160 237 170T180 197L105 122L52 175L125 248Q106
275 95 307T84 376Q84 411 95 443T125 503L52 576L105 629L180 554Q206 572 236 581T301 591Q335 591 366 582T422 554L497 629L550 576L477 503Q497 476 507 444T518 376Q518 340 508 308T477 248L550 175L497 122L422 197Q397 180 366 170T301 160Z" />
<glyph unicode="&#xa5;" horiz-adv-x="660" d="M385 0H275V313L24 715H148L343 387H319L514 715H636L385 311V0ZM556 123H104V205H556V123ZM556 280H104V362H556V280Z" />
<glyph unicode="&#xa6;" horiz-adv-x="229" d="M170 -129H60V217H170V-129ZM170 390H60V736H170V390Z" />
<glyph unicode="&#xa7;" horiz-adv-x="584" d="M526 310Q526 264 500 228T430 170Q465 148 484 116T503 40Q503 -8 476 -46T402 -106T295 -128Q227 -128 168 -102T70 -35L126 30Q155 -3 200 -24T296 -45Q346 -45 376 -22T406 35Q406 72 379 94T288 130Q187 152
132 190T77 297Q77 344 103 379T173 437Q101 483 101 561Q101 610 127 648T199 709T300 731Q363 731 418 705T509 639L452 574Q425 606 386 627T301 648Q256 648 228 626T199 566Q199 534 225 513T316 477Q418 455 471 417T526 310ZM429 297Q428 332 397 352T297
389L255 400Q223 389 199 367T174 312Q174 275 206 254T306 218L347 207Q381 218 405 240T429 297Z" />
<glyph unicode="&#xa8;" horiz-adv-x="595" d="M400 604Q371 604 351 623T331 671Q331 700 351 719T400 739Q430 739 449 720T469 671Q469 643 450 624T400 604ZM184 604Q155 604 135 623T115 671Q115 700 135 719T184 739Q213 739 233 720T253 671Q253 643 233
624T184 604Z" />
<glyph unicode="&#xa9;" horiz-adv-x="852" d="M543 279L599 221Q572 187 528 166T429 145Q366 145 318 172T242 248T214 358Q214 421 242 469T319 544T431 572Q486 572 529 551T599 495L543 439Q525 466 497 481T433 497Q397 497 368 479T322 430T305 358Q305
319 321 288T367 238T433 220Q468 220 496 235T543 279ZM426 -26Q347 -26 278 3T156 86T75 208T45 358Q45 438 74 507T156 630T277 712T426 742Q506 742 575 713T696 630T777 508T807 358Q807 278 778 209T696 86T575 4T426 -26ZM426 49Q490 49 545 72T642 138T707
237T731 358Q731 423 708 479T643 577T546 643T426 667Q362 667 307 644T210 578T145 479T121 358Q121 293 144 237T209 139T306 73T426 49Z" />
<glyph unicode="&#xaa;" horiz-adv-x="470" d="M413 310H325V389L321 402V550Q321 592 294 615T219 639Q185 639 156 626T105 589L52 648Q83 679 127 697T223 715Q309 715 361 672T413 552V310ZM190 298Q122 298 81 333T39 425Q39 486 90 520T227 554H329V490H234Q191
490 165 475T138 429Q138 402 158 387T213 371Q260 371 293 400T330 474L357 460Q357 412 336 376T277 319T190 298Z" />
<glyph unicode="&#xab;" horiz-adv-x="561" d="M182 33L36 250L182 466H305L156 250L305 33H182ZM394 33L248 250L394 466H517L368 250L517 33H394Z" />
<glyph unicode="&#xac;" horiz-adv-x="660" d="M551 162H461V312H109V403H551V162Z" />
<glyph unicode="&#xad;" horiz-adv-x="336" d="M306 238H30V334H306V238Z" />
<glyph unicode="&#xae;" horiz-adv-x="528" d="M222 384H175V604H274Q313 604 337 584T361 532Q361 501 337 481T274 461H219V501H274Q291 501 302 510T313 532Q313 546 302 554T274 563H222V384ZM380 384H322L241 473H297L380 384ZM264 256Q201 256 150 287T68
371T37 488Q37 552 67 604T149 688T264 720Q327 720 378 689T460 605T491 488Q491 424 460 372T378 288T264 256ZM264 317Q311 317 348 338T406 399T428 488Q428 539 407 577T348 637T264 659Q217 659 180 638T122 578T100 488Q100 438 121 399T180 339T264 317Z"
/>
<glyph unicode="&#xaf;" horiz-adv-x="595" d="M439 610H145V691H439V610Z" />
<glyph unicode="&#xb0;" horiz-adv-x="467" d="M234 378Q185 378 144 402T79 466T55 554Q55 603 79 643T144 707T234 731Q283 731 323 707T388 643T412 554Q412 506 388 466T324 402T234 378ZM233 458Q272 458 298 486T325 554Q325 595 299 623T233 651Q195 651
169 623T142 554Q142 514 168 486T233 458Z" />
<glyph unicode="&#xb1;" horiz-adv-x="660" d="M547 328H113V419H547V328ZM375 156H285V591H375V156ZM551 0H109V91H551V0Z" />
<glyph unicode="&#xb2;" horiz-adv-x="408" d="M350 404H42V468L195 601Q226 628 241 649T256 692Q256 716 238 732T192 749Q166 749 140 733T91 682L34 737Q65 778 106 799T196 821Q240 821 273 805T326 760T345 695Q345 654 319 618T239 535Q213 512 192 495T150
461L146 474H350V404Z" />
<glyph unicode="&#xb3;" horiz-adv-x="402" d="M28 471L80 525Q104 496 132 481T192 466Q228 466 250 482T272 525Q272 549 250 565T186 581H150V650H186Q220 650 240 664T261 700Q261 721 242 735T193 750Q165 750 139 736T92 691L40 745Q68 780 110 800T202
821Q245 821 278 806T329 765T348 708Q348 663 307 635T196 607L200 632Q275 632 317 601T359 519Q359 485 339 457T283 412T197 395Q145 395 101 415T28 471Z" />
<glyph unicode="&#xb4;" horiz-adv-x="595" d="M411 761L268 587H173L287 761H411Z" />
<glyph unicode="&#xb5;" horiz-adv-x="660" d="M567 0H456V96L455 124V499H567V0ZM151 60L205 92V-194H93V499H205V201Q205 141 235 110T317 78Q354 78 385 95T438 142T463 211L486 192Q489 131 465 84T396 11T294 -16Q244 -16 207 3T151 60Z" />
<glyph unicode="&#xb6;" horiz-adv-x="641" d="M351 -130H249V278Q187 284 140 313T67 389T40 494Q40 561 72 610T161 687T295 715H559V-130H457V620H351V-130Z" />
<glyph unicode="&#xb7;" horiz-adv-x="248" d="M198 288Q198 258 177 237T124 216Q94 216 73 237T51 288Q51 318 72 339T124 360Q155 360 176 339T198 288Z" />
<glyph unicode="&#xb8;" horiz-adv-x="595" d="M157 -221L194 -163Q207 -175 226 -183T266 -191Q289 -191 303 -180T318 -151Q318 -132 302 -120T258 -108Q249 -108 238 -109T216 -114L251 10H318L291 -82L258 -46Q297 -45 329 -58T380 -94T399 -149Q399 -195
363 -227T263 -259Q231 -259 205 -249T157 -221Z" />
<glyph unicode="&#xb9;" horiz-adv-x="366" d="M191 815H264V404H175V721L72 651V737L191 815Z" />
<glyph unicode="&#xba;" horiz-adv-x="519" d="M260 298Q196 298 148 324T72 398T44 507Q44 568 71 615T147 688T260 715Q323 715 371 689T447 615T475 507Q475 446 448 399T372 325T260 298ZM259 380Q310 380 341 415T373 507Q373 562 342 597T259 633Q209 633
178 598T146 507Q146 451 177 416T259 380Z" />
<glyph unicode="&#xbb;" horiz-adv-x="561" d="M167 466L313 250L167 33H44L193 250L44 466H167ZM379 466L525 250L379 33H256L405 250L256 466H379Z" />
<glyph unicode="&#xbc;" horiz-adv-x="943" d="M280 0H165L656 715H771L280 0ZM849 0H762V85H544V154L762 408H849V154H909V85H849V0ZM762 309L630 154H762V309ZM191 715H264V304H175V621L72 551V637L191 715Z" />
<glyph unicode="&#xbd;" horiz-adv-x="977" d="M274 0H159L650 715H765L274 0ZM920 0H612V64L765 197Q796 224 811 245T826 288Q826 312 808 328T762 345Q736 345 710 329T661 278L604 333Q635 374 676 395T766 417Q810 417 843 401T896 356T915 291Q915 250 889
214T809 131Q783 108 762 91T720 57L716 70H920V0ZM191 715H264V304H175V621L72 551V637L191 715Z" />
<glyph unicode="&#xbe;" horiz-adv-x="978" d="M315 0H200L691 715H806L315 0ZM884 0H797V85H579V154L797 408H884V154H944V85H884V0ZM797 309L665 154H797V309ZM28 371L80 425Q104 396 132 381T192 366Q228 366 250 382T272 425Q272 449 250 465T186 481H150V550H186Q220
550 240 564T261 600Q261 621 242 635T193 650Q165 650 139 636T92 591L40 645Q68 680 110 700T202 721Q245 721 278 706T329 665T348 608Q348 563 307 535T196 507L200 532Q275 532 317 501T359 419Q359 385 339 357T283 312T197 295Q145 295 101 315T28 371Z"
/>
<glyph unicode="&#xbf;" horiz-adv-x="571" d="M263 272H351Q355 229 345 194T307 128T232 66Q198 42 182 17T166 -38Q166 -85 200 -115T289 -146Q338 -146 382 -119T464 -37L539 -110Q490 -174 425 -208T286 -242Q220 -242 167 -215T84 -142T53 -39Q53 16 84
60T179 143Q227 171 245 200T263 272ZM233 427Q233 457 254 478T307 499Q337 499 358 478T380 427Q380 397 359 376T307 355Q276 355 255 376T233 427Z" />
<glyph unicode="&#xc0;" horiz-adv-x="756" d="M582 172H170V270H582V172ZM724 0H602L357 637H395L150 0H32L315 715H441L724 0ZM336 795L173 939H311L445 795H336Z" />
<glyph unicode="&#xc1;" horiz-adv-x="756" d="M582 172H170V270H582V172ZM724 0H602L357 637H395L150 0H32L315 715H441L724 0ZM581 939L418 795H309L443 939H581Z" />
<glyph unicode="&#xc2;" horiz-adv-x="756" d="M582 172H170V270H582V172ZM724 0H602L357 637H395L150 0H32L315 715H441L724 0ZM567 799H459L325 927H427L294 799H187L320 943H434L567 799Z" />
<glyph unicode="&#xc3;" horiz-adv-x="756" d="M582 172H170V270H582V172ZM724 0H602L357 637H395L150 0H32L315 715H441L724 0ZM492 923L567 894Q557 837 523 811T448 785Q422 785 399 796T354 822Q337 833 326 839T304 846Q290 846 279 833T262 787L187 816Q197
873 231 899T305 925Q331 925 355 914T399 888Q417 877 428 871T449 864Q463 864 475 877T492 923Z" />
<glyph unicode="&#xc4;" horiz-adv-x="756" d="M582 172H170V270H582V172ZM724 0H602L357 637H395L150 0H32L315 715H441L724 0ZM488 797Q459 797 439 817T418 865Q418 894 438 914T488 934Q518 934 538 914T558 865Q558 837 538 817T488 797ZM266 797Q236 797
216 817T196 865Q196 894 216 914T266 934Q295 934 315 914T336 865Q336 837 316 817T266 797Z" />
<glyph unicode="&#xc5;" horiz-adv-x="756" d="M582 172H170V270H582V172ZM724 0H602L357 637H395L150 0H32L315 715H441L724 0ZM377 745Q344 745 317 760T273 803T257 863Q257 896 273 922T316 965T377 981Q411 981 438 965T481 923T497 863Q497 830 481 803T438
761T377 745ZM377 807Q399 807 414 823T429 863Q429 887 414 902T377 918Q355 918 340 903T324 863Q324 839 339 823T377 807Z" />
<glyph unicode="&#xc6;" horiz-adv-x="1067" d="M589 715L145 0H21L477 715H589ZM577 172H227V270H577V172ZM1022 0H529V715H1022V617H644V98H1022V0ZM1003 314H634V412H1003V314Z" />
<glyph unicode="&#xc7;" horiz-adv-x="748" d="M634 196L711 119Q664 57 589 21T422 -16Q341 -16 274 12T157 90T80 208T52 357Q52 438 80 506T158 625T277 703T425 731Q516 731 590 695T711 596L634 519Q599 570 546 599T425 629Q353 629 296 594T206 497T173
357Q173 279 206 218T296 122T425 86Q493 86 546 116T634 196ZM300 -221L338 -161Q351 -174 370 -181T409 -189Q432 -189 446 -179T460 -150Q460 -133 445 -122T400 -110Q391 -110 380 -111T358 -116L388 10H454L434 -83L401 -46Q441 -45 473 -57T525 -93T544 -148Q544
-195 508 -227T406 -259Q375 -259 348 -249T300 -221Z" />
<glyph unicode="&#xc8;" horiz-adv-x="613" d="M568 0H76V715H568V617H191V98H568V0ZM549 314H181V412H549V314ZM281 795L118 939H256L390 795H281Z" />
<glyph unicode="&#xc9;" horiz-adv-x="613" d="M568 0H76V715H568V617H191V98H568V0ZM549 314H181V412H549V314ZM526 939L363 795H254L388 939H526Z" />
<glyph unicode="&#xca;" horiz-adv-x="613" d="M568 0H76V715H568V617H191V98H568V0ZM549 314H181V412H549V314ZM512 799H404L270 927H372L239 799H132L265 943H379L512 799Z" />
<glyph unicode="&#xcb;" horiz-adv-x="613" d="M568 0H76V715H568V617H191V98H568V0ZM549 314H181V412H549V314ZM433 797Q404 797 384 817T363 865Q363 894 383 914T433 934Q463 934 483 914T503 865Q503 837 483 817T433 797ZM211 797Q181 797 161 817T141 865Q141
894 161 914T211 934Q240 934 260 914T281 865Q281 837 261 817T211 797Z" />
<glyph unicode="&#xcc;" horiz-adv-x="267" d="M191 0H76V715H191V0ZM92 795L-71 939H67L201 795H92Z" />
<glyph unicode="&#xcd;" horiz-adv-x="267" d="M191 0H76V715H191V0ZM337 939L174 795H65L199 939H337Z" />
<glyph unicode="&#xce;" horiz-adv-x="267" d="M191 0H76V715H191V0ZM323 799H215L81 927H183L50 799H-57L76 943H190L323 799Z" />
<glyph unicode="&#xcf;" horiz-adv-x="267" d="M191 0H76V715H191V0ZM244 797Q215 797 195 817T174 865Q174 894 194 914T244 934Q274 934 294 914T314 865Q314 837 294 817T244 797ZM22 797Q-8 797 -28 817T-48 865Q-48 894 -28 914T22 934Q51 934 71 914T92
865Q92 837 72 817T22 797Z" />
<glyph unicode="&#xd0;" horiz-adv-x="750" d="M76 0V715H319Q433 715 518 669T651 543T699 358Q699 254 652 173T519 46T319 0H76ZM191 99H319Q399 99 457 131T547 222T579 358Q579 436 548 494T458 584T319 616H191V99ZM367 314H8V412H367V314Z" />
<glyph unicode="&#xd1;" horiz-adv-x="751" d="M187 0H75V715H197L603 113H564V715H676V0H554L147 602H187V0ZM490 923L565 894Q555 837 521 811T446 785Q420 785 397 796T352 822Q335 833 324 839T302 846Q288 846 277 833T260 787L185 816Q195 873 229 899T303
925Q329 925 353 914T397 888Q415 877 426 871T447 864Q461 864 473 877T490 923Z" />
<glyph unicode="&#xd2;" horiz-adv-x="860" d="M430 -16Q348 -16 279 12T159 90T80 209T52 358Q52 438 80 506T159 624T279 703T430 731Q512 731 581 703T701 625T780 506T808 358Q808 278 780 210T701 91T581 12T430 -16ZM430 86Q506 86 564 121T655 217T688
358Q688 437 655 498T564 594T430 629Q355 629 297 594T205 498T172 358Q172 279 205 218T296 121T430 86ZM389 795L226 939H364L498 795H389Z" />
<glyph unicode="&#xd3;" horiz-adv-x="860" d="M430 -16Q348 -16 279 12T159 90T80 209T52 358Q52 438 80 506T159 624T279 703T430 731Q512 731 581 703T701 625T780 506T808 358Q808 278 780 210T701 91T581 12T430 -16ZM430 86Q506 86 564 121T655 217T688
358Q688 437 655 498T564 594T430 629Q355 629 297 594T205 498T172 358Q172 279 205 218T296 121T430 86ZM634 939L471 795H362L496 939H634Z" />
<glyph unicode="&#xd4;" horiz-adv-x="860" d="M430 -16Q348 -16 279 12T159 90T80 209T52 358Q52 438 80 506T159 624T279 703T430 731Q512 731 581 703T701 625T780 506T808 358Q808 278 780 210T701 91T581 12T430 -16ZM430 86Q506 86 564 121T655 217T688
358Q688 437 655 498T564 594T430 629Q355 629 297 594T205 498T172 358Q172 279 205 218T296 121T430 86ZM620 799H512L378 927H480L347 799H240L373 943H487L620 799Z" />
<glyph unicode="&#xd5;" horiz-adv-x="860" d="M430 -16Q348 -16 279 12T159 90T80 209T52 358Q52 438 80 506T159 624T279 703T430 731Q512 731 581 703T701 625T780 506T808 358Q808 278 780 210T701 91T581 12T430 -16ZM430 86Q506 86 564 121T655 217T688
358Q688 437 655 498T564 594T430 629Q355 629 297 594T205 498T172 358Q172 279 205 218T296 121T430 86ZM545 923L620 894Q610 837 576 811T501 785Q475 785 452 796T407 822Q390 833 379 839T357 846Q343 846 332 833T315 787L240 816Q250 873 284 899T358 925Q384
925 408 914T452 888Q470 877 481 871T502 864Q516 864 528 877T545 923Z" />
<glyph unicode="&#xd6;" horiz-adv-x="860" d="M430 -16Q348 -16 279 12T159 90T80 209T52 358Q52 438 80 506T159 624T279 703T430 731Q512 731 581 703T701 625T780 506T808 358Q808 278 780 210T701 91T581 12T430 -16ZM430 86Q506 86 564 121T655 217T688
358Q688 437 655 498T564 594T430 629Q355 629 297 594T205 498T172 358Q172 279 205 218T296 121T430 86ZM541 797Q512 797 492 817T471 865Q471 894 491 914T541 934Q571 934 591 914T611 865Q611 837 591 817T541 797ZM319 797Q289 797 269 817T249 865Q249
894 269 914T319 934Q348 934 368 914T389 865Q389 837 369 817T319 797Z" />
<glyph unicode="&#xd7;" horiz-adv-x="660" d="M535 215L473 153L125 500L187 562L535 215ZM473 562L535 500L187 153L125 215L473 562Z" />
<glyph unicode="&#xd8;" horiz-adv-x="860" d="M430 -16Q348 -16 279 12T159 90T80 209T52 358Q52 438 80 506T159 624T279 703T430 731Q512 731 581 703T701 625T780 506T808 358Q808 278 780 210T701 91T581 12T430 -16ZM430 86Q506 86 564 121T655 217T688
358Q688 437 655 498T564 594T430 629Q355 629 297 594T205 498T172 358Q172 279 205 218T296 121T430 86ZM109 -26L42 42L750 741L818 673L109 -26Z" />
<glyph unicode="&#xd9;" horiz-adv-x="734" d="M666 715V282Q666 141 587 63T367 -16Q228 -16 148 62T68 282V715H183V282Q183 190 231 138T367 86Q455 86 503 138T552 282V715H666ZM326 795L163 939H301L435 795H326Z" />
<glyph unicode="&#xda;" horiz-adv-x="734" d="M666 715V282Q666 141 587 63T367 -16Q228 -16 148 62T68 282V715H183V282Q183 190 231 138T367 86Q455 86 503 138T552 282V715H666ZM571 939L408 795H299L433 939H571Z" />
<glyph unicode="&#xdb;" horiz-adv-x="734" d="M666 715V282Q666 141 587 63T367 -16Q228 -16 148 62T68 282V715H183V282Q183 190 231 138T367 86Q455 86 503 138T552 282V715H666ZM557 799H449L315 927H417L284 799H177L310 943H424L557 799Z" />
<glyph unicode="&#xdc;" horiz-adv-x="734" d="M666 715V282Q666 141 587 63T367 -16Q228 -16 148 62T68 282V715H183V282Q183 190 231 138T367 86Q455 86 503 138T552 282V715H666ZM478 797Q449 797 429 817T408 865Q408 894 428 914T478 934Q508 934 528 914T548
865Q548 837 528 817T478 797ZM256 797Q226 797 206 817T186 865Q186 894 206 914T256 934Q285 934 305 914T326 865Q326 837 306 817T256 797Z" />
<glyph unicode="&#xdd;" horiz-adv-x="689" d="M402 0H287V298L16 715H151L358 380H332L540 715H673L402 297V0ZM548 939L385 795H276L410 939H548Z" />
<glyph unicode="&#xde;" horiz-adv-x="653" d="M181 471V569H362Q436 569 492 543T579 469T611 357Q611 294 580 246T492 172T362 145H181V243H362Q423 243 458 273T494 357Q494 410 459 440T362 471H181ZM191 0H76V715H191V0Z" />
<glyph unicode="&#xdf;" horiz-adv-x="639" d="M168 0H56V466Q56 551 89 610T180 700T310 731Q379 731 431 705T512 634T541 536Q541 484 512 443T430 377T302 353H299V403H339Q412 403 470 378T564 305T599 189Q599 128 571 82T494 10T379 -16Q350 -16 319 -10T262
9T217 38L268 116Q288 95 315 85T372 75Q421 75 453 106T485 190Q485 233 462 263T403 310T325 326H280V419H302Q357 419 392 451T427 534Q427 580 397 609T312 639Q249 639 209 594T168 455V0Z" />
<glyph unicode="&#xe0;" horiz-adv-x="566" d="M511 0H408V99L403 120V307Q403 363 367 394T269 426Q224 426 186 408T119 358L55 428Q96 469 151 492T273 515Q344 515 397 491T481 420T511 310V0ZM231 -16Q174 -16 130 5T62 62T38 146Q38 198 68 234T151 290T275
310H415V233H285Q226 233 190 212T153 150Q153 113 181 92T254 70Q297 70 333 88T390 137T415 210L451 193Q451 132 423 85T345 11T231 -16ZM245 587L102 761H226L340 587H245Z" />
<glyph unicode="&#xe1;" horiz-adv-x="566" d="M511 0H408V99L403 120V307Q403 363 367 394T269 426Q224 426 186 408T119 358L55 428Q96 469 151 492T273 515Q344 515 397 491T481 420T511 310V0ZM231 -16Q174 -16 130 5T62 62T38 146Q38 198 68 234T151 290T275
310H415V233H285Q226 233 190 212T153 150Q153 113 181 92T254 70Q297 70 333 88T390 137T415 210L451 193Q451 132 423 85T345 11T231 -16ZM454 761L311 587H216L330 761H454Z" />
<glyph unicode="&#xe2;" horiz-adv-x="566" d="M511 0H408V99L403 120V307Q403 363 367 394T269 426Q224 426 186 408T119 358L55 428Q96 469 151 492T273 515Q344 515 397 491T481 420T511 310V0ZM231 -16Q174 -16 130 5T62 62T38 146Q38 198 68 234T151 290T275
310H415V233H285Q226 233 190 212T153 150Q153 113 181 92T254 70Q297 70 333 88T390 137T415 210L451 193Q451 132 423 85T345 11T231 -16ZM459 587H357L232 745H321L196 587H97L221 761H335L459 587Z" />
<glyph unicode="&#xe3;" horiz-adv-x="566" d="M511 0H408V99L403 120V307Q403 363 367 394T269 426Q224 426 186 408T119 358L55 428Q96 469 151 492T273 515Q344 515 397 491T481 420T511 310V0ZM231 -16Q174 -16 130 5T62 62T38 146Q38 198 68 234T151 290T275
310H415V233H285Q226 233 190 212T153 150Q153 113 181 92T254 70Q297 70 333 88T390 137T415 210L451 193Q451 132 423 85T345 11T231 -16ZM385 732L458 701Q447 644 418 617T352 590Q326 590 303 600T259 626Q243 639 232 645T210 652Q196 652 186 637T170 589L97
620Q108 677 137 704T204 731Q230 731 253 721T296 695Q313 682 324 676T346 670Q360 670 370 685T385 732Z" />
<glyph unicode="&#xe4;" horiz-adv-x="566" d="M511 0H408V99L403 120V307Q403 363 367 394T269 426Q224 426 186 408T119 358L55 428Q96 469 151 492T273 515Q344 515 397 491T481 420T511 310V0ZM231 -16Q174 -16 130 5T62 62T38 146Q38 198 68 234T151 290T275
310H415V233H285Q226 233 190 212T153 150Q153 113 181 92T254 70Q297 70 333 88T390 137T415 210L451 193Q451 132 423 85T345 11T231 -16ZM386 604Q357 604 337 623T317 671Q317 700 337 719T386 739Q416 739 435 720T455 671Q455 643 436 624T386 604ZM170 604Q141
604 121 623T101 671Q101 700 121 719T170 739Q199 739 219 720T239 671Q239 643 219 624T170 604Z" />
<glyph unicode="&#xe5;" horiz-adv-x="566" d="M511 0H408V99L403 120V307Q403 363 367 394T269 426Q224 426 186 408T119 358L55 428Q96 469 151 492T273 515Q344 515 397 491T481 420T511 310V0ZM231 -16Q174 -16 130 5T62 62T38 146Q38 198 68 234T151 290T275
310H415V233H285Q226 233 190 212T153 150Q153 113 181 92T254 70Q297 70 333 88T390 137T415 210L451 193Q451 132 423 85T345 11T231 -16ZM396 677Q396 644 381 618T338 577T278 561Q245 561 218 576T176 618T160 677Q160 710 175 736T218 777T278 793Q311 793
338 778T380 736T396 677ZM330 677Q330 699 315 714T278 730Q257 730 242 715T226 677Q226 654 241 638T278 622Q300 622 315 638T330 677Z" />
<glyph unicode="&#xe6;" horiz-adv-x="967" d="M850 151L914 81Q875 36 817 10T688 -16Q606 -16 543 18T445 112T409 249Q409 327 443 387T536 481T672 515Q745 515 801 482T891 390T924 254V248H812V259Q812 309 794 346T744 404T669 425Q624 425 590 404T536
344T516 251Q516 197 538 157T601 96T693 74Q787 74 850 151ZM924 221H479V296H907L924 253V221ZM494 258H403V296Q403 356 367 391T269 426Q224 426 186 408T119 358L55 428Q96 469 151 492T273 515Q339 515 388 489T466 414T494 298V258ZM241 -16Q181 -16 136
4T64 61T38 144Q38 194 67 228T149 280T272 297H435V222H282Q225 222 189 205T153 149Q153 114 183 92T261 70Q304 70 342 86T405 130T435 197L506 180Q499 124 464 80T371 10T241 -16Z" />
<glyph unicode="&#xe7;" horiz-adv-x="559" d="M453 153L525 83Q488 37 434 11T310 -16Q233 -16 173 18T77 112T42 250Q42 327 77 386T173 480T313 515Q381 515 434 489T525 416L453 346Q431 380 398 400T317 421Q271 421 235 399T179 339T159 250Q159 200 179
161T235 100T317 78Q364 78 397 99T453 153ZM178 -221L215 -163Q228 -175 247 -183T287 -191Q310 -191 324 -180T339 -151Q339 -132 323 -120T279 -108Q270 -108 259 -109T237 -114L272 10H339L312 -82L279 -46Q318 -45 350 -58T401 -94T420 -149Q420 -195 384
-227T284 -259Q252 -259 226 -249T178 -221Z" />
<glyph unicode="&#xe8;" horiz-adv-x="607" d="M490 151L554 81Q515 36 457 10T328 -16Q244 -16 180 18T79 112T42 249Q42 327 77 387T173 481T310 515Q384 515 441 482T531 390T564 254V248H453V259Q453 309 435 346T384 404T309 425Q264 425 230 404T176 344T157
251Q157 197 179 157T241 96T333 74Q428 74 490 151ZM564 214H120V290H548L564 253V214ZM277 587L134 761H258L372 587H277Z" />
<glyph unicode="&#xe9;" horiz-adv-x="607" d="M490 151L554 81Q515 36 457 10T328 -16Q244 -16 180 18T79 112T42 249Q42 327 77 387T173 481T310 515Q384 515 441 482T531 390T564 254V248H453V259Q453 309 435 346T384 404T309 425Q264 425 230 404T176 344T157
251Q157 197 179 157T241 96T333 74Q428 74 490 151ZM564 214H120V290H548L564 253V214ZM486 761L343 587H248L362 761H486Z" />
<glyph unicode="&#xea;" horiz-adv-x="607" d="M490 151L554 81Q515 36 457 10T328 -16Q244 -16 180 18T79 112T42 249Q42 327 77 387T173 481T310 515Q384 515 441 482T531 390T564 254V248H453V259Q453 309 435 346T384 404T309 425Q264 425 230 404T176 344T157
251Q157 197 179 157T241 96T333 74Q428 74 490 151ZM564 214H120V290H548L564 253V214ZM491 587H389L264 745H353L228 587H129L253 761H367L491 587Z" />
<glyph unicode="&#xeb;" horiz-adv-x="607" d="M490 151L554 81Q515 36 457 10T328 -16Q244 -16 180 18T79 112T42 249Q42 327 77 387T173 481T310 515Q384 515 441 482T531 390T564 254V248H453V259Q453 309 435 346T384 404T309 425Q264 425 230 404T176 344T157
251Q157 197 179 157T241 96T333 74Q428 74 490 151ZM564 214H120V290H548L564 253V214ZM418 604Q389 604 369 623T349 671Q349 700 369 719T418 739Q448 739 467 720T487 671Q487 643 468 624T418 604ZM202 604Q173 604 153 623T133 671Q133 700 153 719T202 739Q231
739 251 720T271 671Q271 643 251 624T202 604Z" />
<glyph unicode="&#xec;" horiz-adv-x="237" d="M174 0H62V499H174V0ZM90 587L-29 761H89L179 587H90Z" />
<glyph unicode="&#xed;" horiz-adv-x="237" d="M174 0H62V499H174V0ZM265 761L146 587H57L147 761H265Z" />
<glyph unicode="&#xee;" horiz-adv-x="237" d="M174 0H62V499H174V0ZM284 587H190L70 740H163L43 587H-48L76 761H160L284 587Z" />
<glyph unicode="&#xef;" horiz-adv-x="237" d="M174 0H62V499H174V0ZM203 607Q176 607 157 625T137 670Q137 698 156 716T203 735Q231 735 250 717T269 670Q269 644 250 626T203 607ZM33 607Q6 607 -13 625T-33 670Q-33 698 -14 716T33 735Q61 735 80 717T99 670Q99
644 80 626T33 607Z" />
<glyph unicode="&#xf0;" horiz-adv-x="628" d="M511 238H484Q484 351 452 440T352 600T181 731L269 769Q370 718 440 644T548 478T586 283Q586 185 551 119T454 18T314 -16Q236 -16 175 17T78 108T42 238Q42 311 77 367T170 455T301 488Q373 488 419 455T488 366T511
238ZM314 78Q360 78 395 99T450 156T470 238Q470 285 450 320T395 376T314 397Q268 397 233 377T179 321T159 238Q159 192 178 156T233 99T314 78ZM528 665L213 526L180 603L494 742L528 665Z" />
<glyph unicode="&#xf1;" horiz-adv-x="595" d="M539 0H427V288Q427 355 397 388T316 421Q279 421 247 402T194 342T174 236V0H62V499H173V345H158Q168 411 197 447T265 499T345 515Q435 515 487 460T539 300V0ZM422 732L495 701Q484 644 455 617T389 590Q363 590
340 600T296 626Q280 639 269 645T247 652Q233 652 223 637T207 589L134 620Q145 677 174 704T241 731Q267 731 290 721T333 695Q350 682 361 676T383 670Q397 670 407 685T422 732Z" />
<glyph unicode="&#xf2;" horiz-adv-x="628" d="M314 -16Q235 -16 174 18T77 112T42 250Q42 327 77 387T173 481T314 515Q394 515 455 481T551 387T586 250Q586 172 552 112T456 18T314 -16ZM314 78Q361 78 396 100T450 160T470 250Q470 300 451 338T396 399T314
421Q268 421 233 399T179 339T159 250Q159 199 178 161T233 100T314 78ZM281 587L138 761H262L376 587H281Z" />
<glyph unicode="&#xf3;" horiz-adv-x="628" d="M314 -16Q235 -16 174 18T77 112T42 250Q42 327 77 387T173 481T314 515Q394 515 455 481T551 387T586 250Q586 172 552 112T456 18T314 -16ZM314 78Q361 78 396 100T450 160T470 250Q470 300 451 338T396 399T314
421Q268 421 233 399T179 339T159 250Q159 199 178 161T233 100T314 78ZM490 761L347 587H252L366 761H490Z" />
<glyph unicode="&#xf4;" horiz-adv-x="628" d="M314 -16Q235 -16 174 18T77 112T42 250Q42 327 77 387T173 481T314 515Q394 515 455 481T551 387T586 250Q586 172 552 112T456 18T314 -16ZM314 78Q361 78 396 100T450 160T470 250Q470 300 451 338T396 399T314
421Q268 421 233 399T179 339T159 250Q159 199 178 161T233 100T314 78ZM495 587H393L268 745H357L232 587H133L257 761H371L495 587Z" />
<glyph unicode="&#xf5;" horiz-adv-x="628" d="M314 -16Q235 -16 174 18T77 112T42 250Q42 327 77 387T173 481T314 515Q394 515 455 481T551 387T586 250Q586 172 552 112T456 18T314 -16ZM314 78Q361 78 396 100T450 160T470 250Q470 300 451 338T396 399T314
421Q268 421 233 399T179 339T159 250Q159 199 178 161T233 100T314 78ZM421 732L494 701Q483 644 454 617T388 590Q362 590 339 600T295 626Q279 639 268 645T246 652Q232 652 222 637T206 589L133 620Q144 677 173 704T240 731Q266 731 289 721T332 695Q349 682
360 676T382 670Q396 670 406 685T421 732Z" />
<glyph unicode="&#xf6;" horiz-adv-x="628" d="M314 -16Q235 -16 174 18T77 112T42 250Q42 327 77 387T173 481T314 515Q394 515 455 481T551 387T586 250Q586 172 552 112T456 18T314 -16ZM314 78Q361 78 396 100T450 160T470 250Q470 300 451 338T396 399T314
421Q268 421 233 399T179 339T159 250Q159 199 178 161T233 100T314 78ZM422 604Q393 604 373 623T353 671Q353 700 373 719T422 739Q452 739 471 720T491 671Q491 643 472 624T422 604ZM206 604Q177 604 157 623T137 671Q137 700 157 719T206 739Q235 739 255
720T275 671Q275 643 255 624T206 604Z" />
<glyph unicode="&#xf7;" horiz-adv-x="660" d="M567 312H93V403H567V312ZM330 463Q302 463 282 482T261 529Q261 558 281 577T330 597Q359 597 379 578T399 529Q399 501 379 482T330 463ZM330 118Q302 118 282 137T261 184Q261 213 281 232T330 252Q359 252 379
233T399 184Q399 156 379 137T330 118Z" />
<glyph unicode="&#xf8;" horiz-adv-x="632" d="M316 -16Q236 -16 175 18T79 112T44 250Q44 327 78 387T174 481T316 515Q396 515 457 481T553 387T588 250Q588 172 553 112T457 18T316 -16ZM316 78Q362 78 397 100T451 160T471 250Q471 300 452 338T397 399T316
421Q270 421 235 399T180 339T160 250Q160 199 180 161T235 100T316 78ZM85 -29L30 25L546 529L601 474L85 -29Z" />
<glyph unicode="&#xf9;" horiz-adv-x="593" d="M530 0H419V96L418 124V499H530V0ZM426 211L449 192Q452 131 427 84T357 11T250 -16Q162 -16 109 37T56 190V499H168V201Q168 141 198 110T280 78Q317 78 348 95T401 142T426 211ZM260 587L117 761H241L355 587H260Z" />
<glyph unicode="&#xfa;" horiz-adv-x="593" d="M530 0H419V96L418 124V499H530V0ZM426 211L449 192Q452 131 427 84T357 11T250 -16Q162 -16 109 37T56 190V499H168V201Q168 141 198 110T280 78Q317 78 348 95T401 142T426 211ZM469 761L326 587H231L345 761H469Z" />
<glyph unicode="&#xfb;" horiz-adv-x="593" d="M530 0H419V96L418 124V499H530V0ZM426 211L449 192Q452 131 427 84T357 11T250 -16Q162 -16 109 37T56 190V499H168V201Q168 141 198 110T280 78Q317 78 348 95T401 142T426 211ZM474 587H372L247 745H336L211 587H112L236
761H350L474 587Z" />
<glyph unicode="&#xfc;" horiz-adv-x="593" d="M530 0H419V96L418 124V499H530V0ZM426 211L449 192Q452 131 427 84T357 11T250 -16Q162 -16 109 37T56 190V499H168V201Q168 141 198 110T280 78Q317 78 348 95T401 142T426 211ZM401 604Q372 604 352 623T332 671Q332
700 352 719T401 739Q431 739 450 720T470 671Q470 643 451 624T401 604ZM185 604Q156 604 136 623T116 671Q116 700 136 719T185 739Q214 739 234 720T254 671Q254 643 234 624T185 604Z" />
<glyph unicode="&#xfd;" horiz-adv-x="572" d="M441 499H554L311 -69Q286 -130 246 -162T137 -194H77V-101H132Q163 -101 183 -87T216 -43L233 -1L18 499H135L307 62H268L441 499ZM463 761L320 587H225L339 761H463Z" />
<glyph unicode="&#xfe;" horiz-adv-x="645" d="M174 -194H62V720H174V345H150Q157 395 184 433T256 493T354 515Q424 515 480 481T570 387T603 250Q603 172 570 112T479 18T350 -16Q284 -16 236 11T164 86T143 193L166 211Q171 172 193 142T250 95T326 78Q375
78 410 100T466 161T486 250Q486 299 467 338T414 399T332 421Q286 421 251 399T195 336T174 242V-194Z" />
<glyph unicode="&#xff;" horiz-adv-x="572" d="M441 499H554L311 -69Q286 -130 246 -162T137 -194H77V-101H132Q163 -101 183 -87T216 -43L233 -1L18 499H135L307 62H268L441 499ZM395 604Q366 604 346 623T326 671Q326 700 346 719T395 739Q425 739 444 720T464
671Q464 643 445 624T395 604ZM179 604Q150 604 130 623T110 671Q110 700 130 719T179 739Q208 739 228 720T248 671Q248 643 228 624T179 604Z" />
<glyph unicode="&#x2013;" horiz-adv-x="500" d="M500 232H0V322H500V232Z" />
<glyph unicode="&#x2014;" horiz-adv-x="1000" d="M1000 232H0V322H1000V232Z" />
<glyph unicode="&#x2018;" horiz-adv-x="248" d="M129 747H198Q170 713 154 672T139 603L122 625Q153 625 174 605T195 556Q195 526 175 506T125 485Q93 485 72 508T50 568Q50 595 61 627T90 691T129 747Z" />
<glyph unicode="&#x2019;" horiz-adv-x="248" d="M120 481H51Q78 516 95 556T110 626L126 603Q95 603 75 623T54 673Q54 702 74 722T123 743Q156 743 177 720T198 660Q198 633 187 601T158 537T120 481Z" />
<glyph unicode="&#x201a;" horiz-adv-x="248" d="M120 -132H51Q78 -97 95 -57T110 13L126 -10Q95 -10 75 10T54 60Q54 89 74 109T123 130Q156 130 177 107T198 47Q198 20 187 -12T158 -76T120 -132Z" />
<glyph unicode="&#x201c;" horiz-adv-x="420" d="M129 747H198Q170 713 154 672T139 603L122 625Q153 625 174 605T195 556Q195 526 175 506T125 485Q93 485 72 508T50 568Q50 595 61 627T90 691T129 747ZM301 747H370Q342 713 326 672T311 603L294 625Q325 625
346 605T367 556Q367 526 347 506T297 485Q265 485 244 508T222 568Q222 595 233 627T262 691T301 747Z" />
<glyph unicode="&#x201d;" horiz-adv-x="420" d="M120 481H51Q78 516 95 556T110 626L126 603Q95 603 75 623T54 673Q54 702 74 722T123 743Q156 743 177 720T198 660Q198 633 187 601T158 537T120 481ZM292 481H223Q250 516 267 556T282 626L298 603Q267 603
247 623T226 673Q226 702 246 722T295 743Q328 743 349 720T370 660Q370 633 359 601T330 537T292 481Z" />
<glyph unicode="&#x201e;" horiz-adv-x="420" d="M120 -132H51Q78 -97 95 -57T110 13L126 -10Q95 -10 75 10T54 60Q54 89 74 109T123 130Q156 130 177 107T198 47Q198 20 187 -12T158 -76T120 -132ZM292 -132H223Q250 -97 267 -57T282 13L298 -10Q267 -10 247
10T226 60Q226 89 246 109T295 130Q328 130 349 107T370 47Q370 20 359 -12T330 -76T292 -132Z" />
<glyph unicode="&#x2022;" horiz-adv-x="354" d="M59 274Q59 307 75 333T118 376T177 392Q210 392 236 376T279 334T295 274Q295 242 279 215T237 172T177 156Q145 156 118 172T75 215T59 274Z" />
<glyph unicode="&#x2039;" horiz-adv-x="349" d="M182 33L36 250L182 466H305L156 250L305 33H182Z" />
<glyph unicode="&#x203a;" horiz-adv-x="349" d="M167 466L313 250L167 33H44L193 250L44 466H167Z" />
</font>
</defs>
</svg>
